<?xml version="1.0" standalone="no"?>
<!DOCTYPE svg PUBLIC "-//W3C//DTD SVG 1.1//EN" "http://www.w3.org/Graphics/SVG/1.1/DTD/svg11.dtd" >
<svg>
<metadata>
Created by FontForge 20090914 at Fri Sep  4 12:07:13 2020
 By www-data
</metadata>
<defs>
<font id="SoftballGold" horiz-adv-x="512" >
  <font-face 
    font-family="Softball Gold"
    font-weight="400"
    font-stretch="normal"
    units-per-em="1024"
    panose-1="0 0 4 0 0 0 0 0 0 0"
    ascent="768"
    descent="-256"
    x-height="448"
    cap-height="512"
    bbox="0 -192 768 768"
    underline-thickness="51"
    underline-position="126"
    unicode-range="U+0020-U+20AC"
  />
<missing-glyph horiz-adv-x="64" 
 />
    <glyph glyph-name=".notdef" horiz-adv-x="64" 
 />
    <glyph glyph-name="space" unicode=" " horiz-adv-x="192" 
 />
    <glyph glyph-name="exclam" unicode="!" horiz-adv-x="192" 
d="M0 640h128v-448h-128v448zM0 128h128v-128h-128v128z" />
    <glyph glyph-name="quotedbl" unicode="&#x22;" horiz-adv-x="320" 
d="M0 704h128v-64h128v-192h-64v64h-128v64h-64v128zM0 512h64v-64h-64v64zM128 448h64v-64h-64v64z" />
    <glyph glyph-name="numbersign" unicode="#" horiz-adv-x="384" 
d="M64 512h64v-64h64v64h64v-64h64v-128h-64v-64h64v-128h-64v-64h-64v64h-64v-64h-64v64h-64v128h64v64h-64v128h64v64zM128 320v-64h64v64h-64z" />
    <glyph glyph-name="dollar" unicode="$" 
d="M192 640h64v-64h128v-64h-128v-128h128v-64h64v-256h-64v-64h-128v-64h-64v64h-192v64h192v256h-128v64h-64v128h64v64h128v64zM128 512v-128h64v128h-64zM256 320v-256h64v256h-64z" />
    <glyph glyph-name="percent" unicode="%" 
d="M256 512h128v-128h-64v-128h-64v-128h-64v-128h-128v128h64v128h64v128h64v128zM0 448h128v-128h-128v128zM320 192h128v-128h-128v128z" />
    <glyph glyph-name="ampersand" unicode="&#x26;" 
d="M64 512h256v-64h64v-128h-64v-64h-64v-64h64v64h64v-192h-64v-64h-256v64h-64v192h64v64h-64v128h64v64zM128 448v-192h64v64h64v128h-128zM128 192v-128h128v64h-64v64h-64zM384 64h64v-64h-64v64z" />
    <glyph glyph-name="quotesingle" unicode="'" horiz-adv-x="192" 
d="M64 576h64v-128h-64v-64h-64v128h64v64z" />
    <glyph glyph-name="parenleft" unicode="(" horiz-adv-x="320" 
d="M64 640h192v-64h-128v-576h128v-64h-192v64h-64v576h64v64z" />
    <glyph glyph-name="parenright" unicode=")" horiz-adv-x="320" 
d="M0 640h192v-64h64v-576h-64v-64h-192v64h128v576h-128v64z" />
    <glyph glyph-name="asterisk" unicode="*" horiz-adv-x="448" 
d="M0 384h128v-64h128v64h128v-64h-64v-64h64v-128h-128v64h-128v-64h-128v128h64v64h-64v64z" />
    <glyph glyph-name="plus" unicode="+" horiz-adv-x="448" 
d="M128 384h128v-64h128v-128h-128v-64h-128v64h-128v128h128v64z" />
    <glyph glyph-name="comma" unicode="," horiz-adv-x="192" 
d="M0 64h128v-192h-64v64h-64v128zM0 -128h64v-64h-64v64z" />
    <glyph glyph-name="hyphen" unicode="-" horiz-adv-x="448" 
d="M0 320h384v-128h-384v128z" />
    <glyph glyph-name="period" unicode="." horiz-adv-x="192" 
d="M0 64h128v-64h-128v64z" />
    <glyph glyph-name="slash" unicode="/" horiz-adv-x="320" 
d="M128 576h128v-192h-64v-192h-64v-192h-128v192h64v192h64v192z" />
    <glyph glyph-name="zero" unicode="0" horiz-adv-x="448" 
d="M64 576h256v-64h64v-448h-64v-64h-256v64h-64v448h64v64zM128 512v-448h128v448h-128z" />
    <glyph glyph-name="one" unicode="1" horiz-adv-x="448" 
d="M128 576h128v-512h128v-64h-384v64h128v384h-64v64h64v64z" />
    <glyph glyph-name="two" unicode="2" horiz-adv-x="448" 
d="M64 576h256v-64h64v-192h-64v-64h-192v-192h256v-64h-384v256h64v64h192v192h-192v64zM0 512h64v-64h-64v64z" />
    <glyph glyph-name="three" unicode="3" horiz-adv-x="448" 
d="M0 576h384v-192h-64v-128h64v-192h-64v-64h-320v64h256v192h-192v64h128v64h64v128h-256v64z" />
    <glyph glyph-name="four" unicode="4" horiz-adv-x="448" 
d="M192 576h128v-256h64v-64h-64v-256h-128v256h-192v128h64v64h64v-128h64v128h-64v64h64v64z" />
    <glyph glyph-name="five" unicode="5" horiz-adv-x="448" 
d="M0 576h384v-64h-256v-128h192v-64h64v-256h-64v-64h-256v64h192v256h-192v64h-64v192zM0 128h64v-64h-64v64z" />
    <glyph glyph-name="six" unicode="6" horiz-adv-x="448" 
d="M128 576h192v-64h-128v-64h-64v-128h192v-64h64v-192h-64v-64h-256v64h-64v384h64v64h64v64zM128 256v-192h128v192h-128z" />
    <glyph glyph-name="seven" unicode="7" horiz-adv-x="448" 
d="M0 576h384v-192h-64v-64h-128v-320h-128v320h64v64h128v128h-256v64z" />
    <glyph glyph-name="eight" unicode="8" horiz-adv-x="448" 
d="M64 576h256v-64h64v-192h-64v-64h64v-192h-64v-64h-256v64h-64v192h64v64h-64v192h64v64zM128 512v-192h128v192h-128zM128 256v-192h128v192h-128z" />
    <glyph glyph-name="nine" unicode="9" horiz-adv-x="448" 
d="M64 576h256v-64h64v-384h-64v-64h-64v-64h-192v64h128v64h64v64h-192v64h-64v256h64v64zM128 512v-256h128v256h-128z" />
    <glyph glyph-name="colon" unicode=":" horiz-adv-x="192" 
d="M0 384h128v-128h-128v128zM0 192h128v-128h-128v128z" />
    <glyph glyph-name="semicolon" unicode=";" horiz-adv-x="192" 
d="M0 192h128v-64h-128v64zM0 64h128v-192h-64v64h-64v128zM0 -128h64v-64h-64v64z" />
    <glyph glyph-name="less" unicode="&#x3c;" horiz-adv-x="320" 
d="M128 384h128v-64h-64v-64h-64v-64h64v-64h64v-64h-128v64h-64v64h-64v64h64v64h64v64z" />
    <glyph glyph-name="equal" unicode="=" horiz-adv-x="448" 
d="M0 384h384v-64h-384v64zM0 256h384v-128h-384v128z" />
    <glyph glyph-name="greater" unicode="&#x3e;" horiz-adv-x="320" 
d="M0 384h128v-64h64v-64h64v-64h-64v-64h-64v-64h-128v64h64v64h64v64h-64v64h-64v64z" />
    <glyph glyph-name="question" unicode="?" horiz-adv-x="384" 
d="M0 640h256v-64h64v-128h-64v-64h-64v-192h-128v192h64v64h64v128h-192v64zM64 128h128v-128h-128v128z" />
    <glyph glyph-name="at" unicode="@" horiz-adv-x="640" 
d="M128 448h384v-64h64v-320h-64v-64h-256v64h-64v128h64v64h64v-192h128v192h-128v64h128v64h-256v-64h-64v-320h64v-64h-128v64h-64v320h64v64h64v64z" />
    <glyph glyph-name="A" unicode="A" 
d="M64 576h320v-64h64v-512h-128v256h-192v-256h-128v512h64v64zM128 512v-192h192v192h-192z" />
    <glyph glyph-name="B" unicode="B" 
d="M0 576h384v-64h64v-192h-64v-64h64v-192h-64v-64h-384v576zM128 512v-192h192v192h-192zM128 256v-192h192v192h-192z" />
    <glyph glyph-name="C" unicode="C" horiz-adv-x="448" 
d="M64 576h320v-64h-256v-448h256v-64h-320v64h-64v448h64v64z" />
    <glyph glyph-name="D" unicode="D" 
d="M0 576h320v-64h-192v-448h192v448h64v-64h64v-384h-64v-64h-384v576z" />
    <glyph glyph-name="E" unicode="E" horiz-adv-x="448" 
d="M64 576h320v-64h-256v-192h256v-64h-256v-192h256v-64h-320v64h-64v448h64v64z" />
    <glyph glyph-name="F" unicode="F" horiz-adv-x="448" 
d="M64 576h320v-64h-256v-128h256v-64h-256v-320h-128v512h64v64z" />
    <glyph glyph-name="G" unicode="G" 
d="M64 576h320v-64h-256v-448h192v192h-64v64h192v-256h-64v-64h-320v64h-64v448h64v64z" />
    <glyph glyph-name="H" unicode="H" 
d="M0 576h128v-256h192v256h128v-576h-128v256h-192v-256h-128v576z" />
    <glyph glyph-name="I" unicode="I" horiz-adv-x="320" 
d="M0 576h256v-64h-64v-448h64v-64h-256v64h64v448h-64v64z" />
    <glyph glyph-name="J" unicode="J" 
d="M192 576h256v-512h-64v-64h-320v64h-64v192h128v-192h192v448h-128v64z" />
    <glyph glyph-name="K" unicode="K" 
d="M0 576h128v-320h64v-64h-64v-192h-128v576zM256 576h128v-192h-64v-64h64v-64h64v-256h-128v256h-128v64h64v256z" />
    <glyph glyph-name="L" unicode="L" horiz-adv-x="448" 
d="M0 576h128v-512h256v-64h-320v64h-64v512z" />
    <glyph glyph-name="M" unicode="M" 
d="M0 576h128v-64h64v-128h-64v-384h-128v576zM320 576h128v-576h-128v384h-64v128h64v64zM192 384h64v-64h-64v64z" />
    <glyph glyph-name="N" unicode="N" 
d="M0 576h128v-64h64v-128h-64v-384h-128v576zM320 576h128v-576h-128v128h-64v128h64v320zM192 384h64v-128h-64v128z" />
    <glyph glyph-name="O" unicode="O" 
d="M64 576h320v-64h64v-448h-64v-64h-320v64h-64v448h64v64zM128 512v-448h192v448h-192z" />
    <glyph glyph-name="P" unicode="P" 
d="M0 576h128v-64h64v-64h-64v-192h192v256h-128v64h192v-64h64v-256h-64v-64h-256v-192h-128v576z" />
    <glyph glyph-name="Q" unicode="Q" 
d="M64 576h320v-64h64v-448h-64v-64h-64v-64h64v-64h-128v64h-64v64h-128v64h-64v448h64v64zM128 512v-448h64v64h64v-64h64v448h-192z" />
    <glyph glyph-name="R" unicode="R" 
d="M0 576h384v-64h64v-192h-64v-64h64v-256h-128v192h-128v64h64v64h64v192h-192v-320h64v-64h-64v-128h-128v576z" />
    <glyph glyph-name="S" unicode="S" horiz-adv-x="448" 
d="M64 576h256v-64h-192v-128h192v-64h64v-256h-64v-64h-256v64h192v256h-192v64h-64v128h64v64zM0 128h64v-64h-64v64z" />
    <glyph glyph-name="T" unicode="T" horiz-adv-x="448" 
d="M0 576h384v-64h-128v-512h-128v512h-128v64z" />
    <glyph glyph-name="U" unicode="U" 
d="M0 576h128v-512h192v512h128v-512h-64v-64h-320v64h-64v512z" />
    <glyph glyph-name="V" unicode="V" 
d="M0 576h128v-512h128v-64h-256v576zM320 576h128v-384h-64v-64h-64v448zM256 128h64v-64h-64v64z" />
    <glyph glyph-name="W" unicode="W" horiz-adv-x="704" 
d="M0 576h128v-512h64v-64h-192v576zM256 576h128v-512h64v-64h-192v64h-64v64h64v448zM512 576h128v-384h-64v-64h-64v448zM448 128h64v-64h-64v64z" />
    <glyph glyph-name="X" unicode="X" 
d="M0 576h128v-256h192v256h128v-256h-64v-64h64v-256h-128v256h-192v-256h-128v256h64v64h-64v256z" />
    <glyph glyph-name="Y" unicode="Y" horiz-adv-x="448" 
d="M0 576h128v-320h128v320h128v-320h-64v-64h-64v-192h-128v192h-64v64h-64v320z" />
    <glyph glyph-name="Z" unicode="Z" horiz-adv-x="448" 
d="M0 576h384v-192h-64v-64h-64v-64h-64v-64h-64v-128h256v-64h-384v192h64v64h64v64h64v64h64v128h-256v64z" />
    <glyph glyph-name="bracketleft" unicode="[" horiz-adv-x="320" 
d="M0 640h256v-64h-128v-576h128v-64h-256v704z" />
    <glyph glyph-name="backslash" unicode="\" horiz-adv-x="320" 
d="M0 576h128v-192h64v-192h64v-192h-128v192h-64v192h-64v192z" />
    <glyph glyph-name="bracketright" unicode="]" horiz-adv-x="320" 
d="M0 640h256v-704h-256v64h128v576h-128v64z" />
    <glyph glyph-name="asciicircum" unicode="^" horiz-adv-x="384" 
d="M128 704h64v-64h64v-64h64v-64h-128v64h-64v-64h-128v64h64v64h64v64z" />
    <glyph glyph-name="underscore" unicode="_" horiz-adv-x="320" 
d="M0 64h256v-128h-256v128z" />
    <glyph glyph-name="grave" unicode="`" horiz-adv-x="256" 
d="M0 640h128v-64h64v-64h-128v64h-64v64z" />
    <glyph glyph-name="a" unicode="a" 
d="M128 448h256v-64h64v-384h-384v64h-64v128h64v64h64v-192h192v192h-192v64h192v64h-192v64zM64 384h64v-64h-64v64z" />
    <glyph glyph-name="b" unicode="b" 
d="M0 576h128v-128h256v-64h64v-320h-64v-64h-384v576zM128 384v-320h192v320h-192z" />
    <glyph glyph-name="c" unicode="c" horiz-adv-x="448" 
d="M64 448h320v-64h-256v-320h256v-64h-320v64h-64v320h64v64z" />
    <glyph glyph-name="d" unicode="d" 
d="M320 576h128v-576h-320v64h192v320h-192v-320h-64v64h-64v256h64v64h256v128z" />
    <glyph glyph-name="e" unicode="e" 
d="M64 448h320v-64h64v-192h-64v-64h-256v-64h256v-64h-320v64h-64v320h64v64zM128 384v-192h192v192h-192zM384 128h64v-64h-64v64z" />
    <glyph glyph-name="f" unicode="f" horiz-adv-x="448" 
d="M128 576h256v-64h-192v-64h192v-64h-192v-384h-64v-64h-128v64h64v384h-64v64h64v64h64v64z" />
    <glyph glyph-name="g" unicode="g" 
d="M64 448h320v-64h64v-448h-64v-64h-256v64h192v128h-256v64h-64v256h64v64zM128 384v-256h192v256h-192z" />
    <glyph glyph-name="h" unicode="h" 
d="M0 576h128v-192h64v-64h-64v-320h-128v576zM192 448h192v-64h64v-384h-128v384h-128v64z" />
    <glyph glyph-name="i" unicode="i" horiz-adv-x="320" 
d="M64 576h128v-64h-128v64zM0 448h192v-384h64v-64h-256v64h64v320h-64v64z" />
    <glyph glyph-name="j" unicode="j" horiz-adv-x="448" 
d="M256 576h128v-64h-128v64zM128 448h256v-448h-64v-64h-256v64h-64v192h128v-192h128v384h-128v64z" />
    <glyph glyph-name="k" unicode="k" 
d="M0 576h128v-384h64v-64h-64v-128h-128v576zM256 448h128v-128h-64v-64h64v-64h64v-192h-128v192h-128v64h64v192z" />
    <glyph glyph-name="l" unicode="l" horiz-adv-x="320" 
d="M0 576h128v-512h128v-64h-192v64h-64v512z" />
    <glyph glyph-name="m" unicode="m" horiz-adv-x="704" 
d="M0 448h512v-64h-128v-384h-128v384h-128v-384h-128v448zM512 384h64v-64h64v-320h-128v384z" />
    <glyph glyph-name="n" unicode="n" 
d="M0 448h320v-64h-192v-384h-128v448zM320 384h64v-64h64v-320h-128v384z" />
    <glyph glyph-name="o" unicode="o" 
d="M64 448h320v-64h64v-320h-64v-64h-320v64h-64v320h64v64zM128 384v-320h192v320h-192z" />
    <glyph glyph-name="p" unicode="p" 
d="M0 448h128v-64h64v-64h-64v-192h192v256h-128v64h192v-64h64v-256h-64v-64h-256v-192h-128v576z" />
    <glyph glyph-name="q" unicode="q" 
d="M64 448h384v-576h-128v192h-256v64h-64v256h64v64zM128 384v-256h192v256h-192z" />
    <glyph glyph-name="r" unicode="r" horiz-adv-x="448" 
d="M0 448h128v-64h64v-64h-64v-320h-128v448zM192 448h128v-64h64v-128h-128v128h-64v64z" />
    <glyph glyph-name="s" unicode="s" horiz-adv-x="448" 
d="M64 448h256v-64h-192v-128h192v-64h64v-128h-64v-64h-256v64h192v128h-192v64h-64v128h64v64zM0 128h64v-64h-64v64z" />
    <glyph glyph-name="t" unicode="t" horiz-adv-x="384" 
d="M0 576h128v-128h192v-64h-192v-320h192v-64h-256v64h-64v512z" />
    <glyph glyph-name="u" unicode="u" 
d="M0 448h128v-384h192v384h128v-384h-64v-64h-320v64h-64v384z" />
    <glyph glyph-name="v" unicode="v" 
d="M0 448h128v-384h128v-64h-256v448zM320 448h128v-256h-64v-64h-64v320zM256 128h64v-64h-64v64z" />
    <glyph glyph-name="w" unicode="w" horiz-adv-x="704" 
d="M0 448h128v-384h64v-64h-192v448zM256 448h128v-384h64v-64h-192v64h-64v64h64v320zM512 448h128v-256h-64v-64h-64v320zM448 128h64v-64h-64v64z" />
    <glyph glyph-name="x" unicode="x" 
d="M0 448h128v-192h192v192h128v-192h-64v-64h64v-192h-128v192h-192v-192h-128v192h64v64h-64v192z" />
    <glyph glyph-name="y" unicode="y" 
d="M0 448h128v-320h-64v64h-64v256zM320 448h128v-512h-64v-64h-256v64h192v128h-192v64h192v320z" />
    <glyph glyph-name="z" unicode="z" horiz-adv-x="448" 
d="M0 448h384v-128h-64v-64h-64v-64h-64v-64h-64v-64h256v-64h-384v128h64v64h64v64h64v64h64v64h-256v64z" />
    <glyph glyph-name="braceleft" unicode="{" horiz-adv-x="320" 
d="M64 640h192v-64h-128v-192h64v-128h-64v-256h128v-64h-192v64h-64v192h64v64h-64v64h64v64h-64v192h64v64z" />
    <glyph glyph-name="bar" unicode="|" horiz-adv-x="192" 
d="M0 576h128v-576h-128v576z" />
    <glyph glyph-name="braceright" unicode="}" horiz-adv-x="320" 
d="M0 640h192v-64h64v-192h-64v-64h64v-64h-64v-64h64v-192h-64v-64h-192v64h128v256h-64v128h64v192h-128v64z" />
    <glyph glyph-name="asciitilde" unicode="~" 
d="M64 384h128v-64h64v-64h128v64h64v-128h-64v-64h-128v64h-64v64h-128v-64h-64v128h64v64z" />
    <glyph glyph-name="exclamdown" unicode="&#xa1;" horiz-adv-x="192" 
d="M0 448h128v-128h-128v128zM0 256h128v-448h-128v448z" />
    <glyph glyph-name="cent" unicode="&#xa2;" horiz-adv-x="448" 
d="M192 512h64v-64h128v-64h-128v-256h128v-64h-128v-128h-64v128h-128v64h-64v256h64v64h128v64zM128 384v-256h64v256h-64z" />
    <glyph glyph-name="sterling" unicode="&#xa3;" horiz-adv-x="448" 
d="M128 576h256v-64h-192v-192h192v-64h-192v-192h192v-64h-384v64h64v192h-64v64h64v192h64v64z" />
    <glyph glyph-name="copyright" unicode="&#xa9;" horiz-adv-x="640" 
d="M64 448h448v-64h64v-320h-64v-64h-448v64h-64v320h64v64zM128 384v-320h320v320h-320zM192 320h192v-64h-128v-64h128v-64h-192v192z" />
    <glyph glyph-name="registered" unicode="&#xae;" horiz-adv-x="640" 
d="M64 448h448v-64h64v-320h-64v-64h-448v64h-64v320h64v64zM128 384v-320h320v320h-320zM192 320h192v-64h-64v-64h-64v-64h-64v192zM320 192h64v-64h-64v64z" />
    <glyph glyph-name="degree" unicode="&#xb0;" horiz-adv-x="384" 
d="M64 640h192v-64h64v-128h-64v-64h-192v64h-64v128h64v64zM128 576v-128h64v128h-64z" />
    <glyph glyph-name="questiondown" unicode="&#xbf;" horiz-adv-x="384" 
d="M128 448h128v-128h-128v128zM128 256h128v-192h-64v-64h-64v-128h192v-64h-256v64h-64v128h64v64h64v192z" />
    <glyph glyph-name="Agrave" unicode="&#xc0;" 
d="M128 768h128v-64h64v-64h-128v64h-64v64zM64 576h320v-64h64v-512h-128v256h-192v-256h-128v512h64v64zM128 512v-192h192v192h-192z" />
    <glyph glyph-name="Aacute" unicode="&#xc1;" 
d="M192 768h128v-64h-64v-64h-128v64h64v64zM64 576h320v-64h64v-512h-128v256h-192v-256h-128v512h64v64zM128 512v-192h192v192h-192z" />
    <glyph glyph-name="Acircumflex" unicode="&#xc2;" 
d="M128 768h192v-64h64v-64h-128v64h-64v-64h-128v64h64v64zM64 576h320v-64h64v-512h-128v256h-192v-256h-128v512h64v64zM128 512v-192h192v192h-192z" />
    <glyph glyph-name="Atilde" unicode="&#xc3;" 
d="M128 768h128v-64h-64v-64h-128v64h64v64zM320 768h64v-64h-64v64zM256 704h64v-64h-64v64zM64 576h320v-64h64v-512h-128v256h-192v-256h-128v512h64v64zM128 512v-192h192v192h-192z" />
    <glyph glyph-name="Adieresis" unicode="&#xc4;" 
d="M128 768h64v-128h-64v128zM256 768h64v-128h-64v128zM64 576h320v-64h64v-512h-128v256h-192v-256h-128v512h64v64zM128 512v-192h192v192h-192z" />
    <glyph glyph-name="Aring" unicode="&#xc5;" 
d="M128 768h192v-64h64v-64h-64v-64h-192v64h-64v64h64v64zM192 704v-64h64v64h-64zM64 512h320v-64h64v-448h-128v192h-192v-192h-128v448h64v64zM128 448v-192h192v192h-192z" />
    <glyph glyph-name="AE" unicode="&#xc6;" horiz-adv-x="768" 
d="M64 576h640v-64h-256v-192h256v-64h-256v-192h256v-64h-384v256h-192v-256h-128v512h64v64zM128 512v-192h192v192h-192z" />
    <glyph glyph-name="Ccedilla" unicode="&#xc7;" horiz-adv-x="448" 
d="M64 576h320v-64h-256v-448h256v-64h-64v-128h-128v64h64v64h-192v64h-64v448h64v64z" />
    <glyph glyph-name="Egrave" unicode="&#xc8;" horiz-adv-x="448" 
d="M128 768h128v-64h64v-64h-128v64h-64v64zM64 576h320v-64h-256v-192h256v-64h-256v-192h256v-64h-320v64h-64v448h64v64z" />
    <glyph glyph-name="Eacute" unicode="&#xc9;" horiz-adv-x="448" 
d="M256 768h128v-64h-64v-64h-128v64h64v64zM64 576h320v-64h-256v-192h256v-64h-256v-192h256v-64h-320v64h-64v448h64v64z" />
    <glyph glyph-name="Ecircumflex" unicode="&#xca;" horiz-adv-x="448" 
d="M128 768h192v-64h64v-64h-128v64h-64v-64h-128v64h64v64zM64 576h320v-64h-256v-192h256v-64h-256v-192h256v-64h-320v64h-64v448h64v64z" />
    <glyph glyph-name="Edieresis" unicode="&#xcb;" horiz-adv-x="448" 
d="M128 768h64v-128h-64v128zM256 768h64v-128h-64v128zM64 576h320v-64h-256v-192h256v-64h-256v-192h256v-64h-320v64h-64v448h64v64z" />
    <glyph glyph-name="Igrave" unicode="&#xcc;" horiz-adv-x="320" 
d="M0 768h128v-64h64v-64h-128v64h-64v64zM0 576h256v-64h-64v-448h64v-64h-256v64h64v448h-64v64z" />
    <glyph glyph-name="Iacute" unicode="&#xcd;" horiz-adv-x="320" 
d="M128 768h128v-64h-64v-64h-128v64h64v64zM0 576h256v-64h-64v-448h64v-64h-256v64h64v448h-64v64z" />
    <glyph glyph-name="Icircumflex" unicode="&#xce;" horiz-adv-x="320" 
d="M64 768h128v-64h64v-64h-128v64h-64v64zM0 704h64v-64h-64v64zM0 576h256v-64h-64v-448h64v-64h-256v64h64v448h-64v64z" />
    <glyph glyph-name="Idieresis" unicode="&#xcf;" horiz-adv-x="320" 
d="M0 768h64v-128h-64v128zM192 768h64v-128h-64v128zM0 576h256v-64h-64v-448h64v-64h-256v64h64v448h-64v64z" />
    <glyph glyph-name="Eth" unicode="&#xd0;" horiz-adv-x="576" 
d="M64 576h320v-64h-192v-192h128v-64h-128v-192h192v448h64v-64h64v-384h-64v-64h-384v256h-64v64h64v256z" />
    <glyph glyph-name="Ntilde" unicode="&#xd1;" 
d="M128 768h128v-64h-64v-64h-128v64h64v64zM320 768h64v-64h-64v64zM256 704h64v-64h-64v64zM0 576h128v-64h64v-128h-64v-384h-128v576zM320 576h128v-576h-128v128h-64v128h64v320zM192 384h64v-128h-64v128z" />
    <glyph glyph-name="Ograve" unicode="&#xd2;" 
d="M128 768h128v-64h64v-64h-128v64h-64v64zM64 576h320v-64h64v-448h-64v-64h-320v64h-64v448h64v64zM128 512v-448h192v448h-192z" />
    <glyph glyph-name="Oacute" unicode="&#xd3;" 
d="M192 768h128v-64h-64v-64h-128v64h64v64zM64 576h320v-64h64v-448h-64v-64h-320v64h-64v448h64v64zM128 512v-448h192v448h-192z" />
    <glyph glyph-name="Ocircumflex" unicode="&#xd4;" 
d="M128 768h192v-64h64v-64h-128v64h-64v-64h-128v64h64v64zM64 576h320v-64h64v-448h-64v-64h-320v64h-64v448h64v64zM128 512v-448h192v448h-192z" />
    <glyph glyph-name="Otilde" unicode="&#xd5;" 
d="M128 768h128v-64h-64v-64h-128v64h64v64zM320 768h64v-64h-64v64zM256 704h64v-64h-64v64zM64 576h320v-64h64v-448h-64v-64h-320v64h-64v448h64v64zM128 512v-448h192v448h-192z" />
    <glyph glyph-name="Odieresis" unicode="&#xd6;" 
d="M128 768h64v-128h-64v128zM256 768h64v-128h-64v128zM64 576h320v-64h64v-448h-64v-64h-320v64h-64v448h64v64zM128 512v-448h192v448h-192z" />
    <glyph glyph-name="Oslash" unicode="&#xd8;" 
d="M64 576h320v-64h64v-448h-64v-64h-320v64h-64v448h64v64zM128 512v-320h64v128h64v128h64v64h-192zM256 320v-128h-64v-128h128v256h-64zM192 320h64v-128h-64v128z" />
    <glyph glyph-name="Ugrave" unicode="&#xd9;" 
d="M128 768h128v-64h64v-64h-128v64h-64v64zM0 576h128v-512h192v512h128v-512h-64v-64h-320v64h-64v512z" />
    <glyph glyph-name="Uacute" unicode="&#xda;" 
d="M192 768h128v-64h-64v-64h-128v64h64v64zM0 576h128v-512h192v512h128v-512h-64v-64h-320v64h-64v512z" />
    <glyph glyph-name="Ucircumflex" unicode="&#xdb;" 
d="M128 768h192v-64h64v-64h-128v64h-64v-64h-128v64h64v64zM0 576h128v-512h192v512h128v-512h-64v-64h-320v64h-64v512z" />
    <glyph glyph-name="Udieresis" unicode="&#xdc;" 
d="M128 768h64v-128h-64v128zM256 768h64v-128h-64v128zM0 576h128v-512h192v512h128v-512h-64v-64h-320v64h-64v512z" />
    <glyph glyph-name="Yacute" unicode="&#xdd;" horiz-adv-x="448" 
d="M192 768h128v-64h-64v-64h-128v64h64v64zM0 576h128v-320h128v320h128v-320h-64v-64h-64v-192h-128v192h-64v64h-64v320z" />
    <glyph glyph-name="Thorn" unicode="&#xde;" horiz-adv-x="576" 
d="M64 576h128v-64h192v-64h-192v-320h192v320h64v-64h64v-256h-64v-64h-256v-64h-128v576z" />
    <glyph glyph-name="germandbls" unicode="&#xdf;" horiz-adv-x="576" 
d="M192 576h192v-64h64v-192h-64v-64h-64v-64h-64v128h64v192h-128v64zM128 512h64v-448h-64v-64h-128v64h64v384h64v64zM384 256h64v-64h64v-128h-64v-64h-192v64h128v192z" />
    <glyph glyph-name="agrave" unicode="&#xe0;" 
d="M128 640h128v-64h64v-64h-128v64h-64v64zM128 448h256v-64h64v-384h-384v64h-64v128h64v64h64v-192h192v192h-192v64h192v64h-192v64zM64 384h64v-64h-64v64z" />
    <glyph glyph-name="aacute" unicode="&#xe1;" 
d="M256 640h128v-64h-64v-64h-128v64h64v64zM128 448h256v-64h64v-384h-384v64h-64v128h64v64h64v-192h192v192h-192v64h192v64h-192v64zM64 384h64v-64h-64v64z" />
    <glyph glyph-name="acircumflex" unicode="&#xe2;" 
d="M192 640h128v-64h64v-64h-128v64h-64v64zM128 576h64v-64h-64v64zM128 448h256v-64h64v-384h-384v64h-64v128h64v64h64v-192h192v192h-192v64h192v64h-192v64zM64 384h64v-64h-64v64z" />
    <glyph glyph-name="atilde" unicode="&#xe3;" 
d="M192 640h128v-64h-64v-64h-128v64h64v64zM384 640h64v-64h-64v64zM320 576h64v-64h-64v64zM128 448h256v-64h64v-384h-384v64h-64v128h64v64h64v-192h192v192h-192v64h192v64h-192v64zM64 384h64v-64h-64v64z" />
    <glyph glyph-name="adieresis" unicode="&#xe4;" 
d="M128 640h64v-128h-64v128zM256 640h64v-128h-64v128zM128 448h256v-64h64v-384h-384v64h-64v128h64v64h64v-192h192v192h-192v64h192v64h-192v64zM64 384h64v-64h-64v64z" />
    <glyph glyph-name="aring" unicode="&#xe5;" 
d="M192 704h128v-64h64v-64h-64v-64h-128v64h64v64h-64v64zM128 640h64v-64h-64v64zM128 448h256v-64h64v-384h-384v64h-64v128h64v64h64v-192h192v192h-192v64h192v64h-192v64zM64 384h64v-64h-64v64z" />
    <glyph glyph-name="ae" unicode="&#xe6;" horiz-adv-x="832" 
d="M128 448h256v-64h64v-192h192v192h-192v64h256v-64h64v-192h-64v-64h-256v-64h256v-64h-320v64h-64v192h-192v64h192v64h-192v64zM64 384h64v-64h-64v64zM64 256h64v-192h192v-64h-256v64h-64v128h64v64zM704 128h64v-64h-64v64z" />
    <glyph glyph-name="ccedilla" unicode="&#xe7;" horiz-adv-x="448" 
d="M64 448h320v-64h-256v-320h256v-64h-64v-128h-128v64h64v64h-192v64h-64v320h64v64z" />
    <glyph glyph-name="egrave" unicode="&#xe8;" 
d="M128 640h128v-64h64v-64h-128v64h-64v64zM64 448h320v-64h64v-192h-64v-64h-256v-64h256v-64h-320v64h-64v320h64v64zM128 384v-192h192v192h-192zM384 128h64v-64h-64v64z" />
    <glyph glyph-name="eacute" unicode="&#xe9;" 
d="M256 640h128v-64h-64v-64h-128v64h64v64zM64 448h320v-64h64v-192h-64v-64h-256v-64h256v-64h-320v64h-64v320h64v64zM128 384v-192h192v192h-192zM384 128h64v-64h-64v64z" />
    <glyph glyph-name="ecircumflex" unicode="&#xea;" 
d="M192 640h128v-64h64v-64h-128v64h-64v64zM128 576h64v-64h-64v64zM64 448h320v-64h64v-192h-64v-64h-256v-64h256v-64h-320v64h-64v320h64v64zM128 384v-192h192v192h-192zM384 128h64v-64h-64v64z" />
    <glyph glyph-name="edieresis" unicode="&#xeb;" 
d="M128 640h64v-128h-64v128zM256 640h64v-128h-64v128zM64 448h320v-64h64v-192h-64v-64h-256v-64h256v-64h-320v64h-64v320h64v64zM128 384v-192h192v192h-192zM384 128h64v-64h-64v64z" />
    <glyph glyph-name="igrave" unicode="&#xec;" horiz-adv-x="320" 
d="M0 640h128v-64h64v-64h-128v64h-64v64zM0 448h192v-384h64v-64h-256v64h64v320h-64v64z" />
    <glyph glyph-name="iacute" unicode="&#xed;" horiz-adv-x="320" 
d="M128 640h128v-64h-64v-64h-128v64h64v64zM0 448h192v-384h64v-64h-256v64h64v320h-64v64z" />
    <glyph glyph-name="icircumflex" unicode="&#xee;" horiz-adv-x="320" 
d="M64 640h128v-64h64v-64h-128v64h-64v64zM0 576h64v-64h-64v64zM0 448h192v-384h64v-64h-256v64h64v320h-64v64z" />
    <glyph glyph-name="idieresis" unicode="&#xef;" horiz-adv-x="320" 
d="M0 640h64v-128h-64v128zM128 640h64v-128h-64v128zM0 448h192v-384h64v-64h-256v64h64v320h-64v64z" />
    <glyph glyph-name="eth" unicode="&#xf0;" 
d="M192 576h192v-64h-64v-64h64v-64h64v-256h-64v-64h-64v192h-64v64h64v64h-64v64h-192v64h128v64zM64 384h192v-64h-128v-256h192v-64h-256v64h-64v256h64v64z" />
    <glyph glyph-name="ntilde" unicode="&#xf1;" 
d="M128 640h128v-64h-64v-64h-128v64h64v64zM320 640h64v-64h-64v64zM256 576h64v-64h-64v64zM0 448h320v-64h-192v-384h-128v448zM320 384h64v-64h64v-320h-128v384z" />
    <glyph glyph-name="ograve" unicode="&#xf2;" 
d="M128 640h128v-64h64v-64h-128v64h-64v64zM64 448h320v-64h64v-320h-64v-64h-320v64h-64v320h64v64zM128 384v-320h192v320h-192z" />
    <glyph glyph-name="oacute" unicode="&#xf3;" 
d="M192 640h128v-64h-64v-64h-128v64h64v64zM64 448h320v-64h64v-320h-64v-64h-320v64h-64v320h64v64zM128 384v-320h192v320h-192z" />
    <glyph glyph-name="ocircumflex" unicode="&#xf4;" 
d="M128 640h192v-64h64v-64h-128v64h-64v-64h-128v64h64v64zM64 448h320v-64h64v-320h-64v-64h-320v64h-64v320h64v64zM128 384v-320h192v320h-192z" />
    <glyph glyph-name="otilde" unicode="&#xf5;" 
d="M128 640h128v-64h-64v-64h-128v64h64v64zM320 640h64v-64h-64v64zM256 576h64v-64h-64v64zM64 448h320v-64h64v-320h-64v-64h-320v64h-64v320h64v64zM128 384v-320h192v320h-192z" />
    <glyph glyph-name="odieresis" unicode="&#xf6;" 
d="M128 640h64v-128h-64v128zM256 640h64v-128h-64v128zM64 448h320v-64h64v-320h-64v-64h-320v64h-64v320h64v64zM128 384v-320h192v320h-192z" />
    <glyph glyph-name="oslash" unicode="&#xf8;" 
d="M64 448h320v-64h64v-320h-64v-64h-320v64h-64v320h64v64zM128 384v-192h64v64h64v64h64v64h-192zM256 256v-64h-64v-64h-64v-64h192v192h-64zM192 256h64v-64h-64v64z" />
    <glyph glyph-name="ugrave" unicode="&#xf9;" 
d="M128 640h128v-64h64v-64h-128v64h-64v64zM0 448h128v-384h192v384h128v-384h-64v-64h-320v64h-64v384z" />
    <glyph glyph-name="uacute" unicode="&#xfa;" 
d="M192 640h128v-64h-64v-64h-128v64h64v64zM0 448h128v-384h192v384h128v-384h-64v-64h-320v64h-64v384z" />
    <glyph glyph-name="ucircumflex" unicode="&#xfb;" 
d="M128 640h192v-64h64v-64h-128v64h-64v-64h-128v64h64v64zM0 448h128v-384h192v384h128v-384h-64v-64h-320v64h-64v384z" />
    <glyph glyph-name="udieresis" unicode="&#xfc;" 
d="M128 640h64v-128h-64v128zM256 640h64v-128h-64v128zM0 448h128v-384h192v384h128v-384h-64v-64h-320v64h-64v384z" />
    <glyph glyph-name="yacute" unicode="&#xfd;" 
d="M192 640h128v-64h-64v-64h-128v64h64v64zM0 448h128v-320h-64v64h-64v256zM320 448h128v-512h-64v-64h-256v64h192v128h-192v64h192v320z" />
    <glyph glyph-name="thorn" unicode="&#xfe;" 
d="M0 576h128v-192h64v-64h-64v-256h192v320h64v-64h64v-256h-64v-64h-256v-128h-128v704zM192 448h128v-64h-128v64z" />
    <glyph glyph-name="ydieresis" unicode="&#xff;" 
d="M128 640h64v-128h-64v128zM256 640h64v-128h-64v128zM0 448h128v-320h-64v64h-64v256zM320 448h128v-512h-64v-64h-256v64h192v128h-192v64h192v320z" />
    <glyph glyph-name="Aogonek" unicode="&#x104;" 
d="M64 576h320v-64h64v-512h-64v-64h64v-64h-128v384h-192v-256h-128v512h64v64zM128 512v-192h192v192h-192z" />
    <glyph glyph-name="aogonek" unicode="&#x105;" 
d="M128 448h256v-64h64v-384h-64v-64h64v-64h-128v128h-256v64h-64v128h64v64h64v-192h192v192h-192v64h192v64h-192v64zM64 384h64v-64h-64v64z" />
    <glyph glyph-name="Cacute" unicode="&#x106;" horiz-adv-x="448" 
d="M256 768h128v-64h-64v-64h-128v64h64v64zM64 576h320v-64h-256v-448h256v-64h-320v64h-64v448h64v64z" />
    <glyph glyph-name="cacute" unicode="&#x107;" horiz-adv-x="448" 
d="M192 640h128v-64h-64v-64h-128v64h64v64zM64 448h320v-64h-256v-320h256v-64h-320v64h-64v320h64v64z" />
    <glyph glyph-name="Eogonek" unicode="&#x118;" horiz-adv-x="448" 
d="M64 576h320v-64h-256v-192h256v-64h-256v-192h256v-64h-64v-64h64v-64h-128v128h-192v64h-64v448h64v64z" />
    <glyph glyph-name="eogonek" unicode="&#x119;" 
d="M64 448h320v-64h64v-192h-64v-64h-256v-64h256v-64h-64v-64h64v-64h-128v128h-192v64h-64v320h64v64zM128 384v-192h192v192h-192zM384 128h64v-64h-64v64z" />
    <glyph glyph-name="Gbreve" unicode="&#x11e;" 
d="M128 768h64v-64h64v64h64v-128h-192v128zM64 576h320v-64h-256v-448h192v192h-64v64h192v-256h-64v-64h-320v64h-64v448h64v64z" />
    <glyph glyph-name="gbreve" unicode="&#x11f;" 
d="M128 576h64v-64h64v64h64v-128h-192v128zM64 384h320v-64h64v-448h-64v-64h-256v64h192v128h-256v64h-64v256h64v64zM128 320v-256h192v256h-192z" />
    <glyph glyph-name="Idotaccent" unicode="&#x130;" horiz-adv-x="320" 
d="M64 704h128v-64h-128v64zM0 576h256v-64h-64v-448h64v-64h-256v64h64v448h-64v64z" />
    <glyph glyph-name="dotlessi" unicode="&#x131;" horiz-adv-x="320" 
d="M0 384h192v-384h64v-64h-256v64h64v320h-64v64z" />
    <glyph glyph-name="Lslash" unicode="&#x141;" 
d="M64 576h128v-192h64v-64h-64v-256h256v-64h-320v64h-64v128h-64v64h64v320zM256 448h64v-64h-64v64z" />
    <glyph glyph-name="lslash" unicode="&#x142;" horiz-adv-x="384" 
d="M64 576h128v-192h64v-64h-64v-256h128v-64h-192v64h-64v128h-64v64h64v320zM256 448h64v-64h-64v64z" />
    <glyph glyph-name="Nacute" unicode="&#x143;" 
d="M256 768h128v-64h-64v-64h-128v64h64v64zM0 576h128v-64h64v-128h-64v-384h-128v576zM320 576h128v-576h-128v128h-64v128h64v320zM192 384h64v-128h-64v128z" />
    <glyph glyph-name="nacute" unicode="&#x144;" 
d="M192 640h128v-64h-64v-64h-128v64h64v64zM0 448h320v-64h-192v-384h-128v448zM320 384h64v-64h64v-320h-128v384z" />
    <glyph glyph-name="OE" unicode="&#x152;" horiz-adv-x="768" 
d="M64 576h640v-64h-256v-192h256v-64h-256v-192h256v-64h-640v64h-64v448h64v64zM128 512v-448h192v448h-192z" />
    <glyph glyph-name="oe" unicode="&#x153;" horiz-adv-x="832" 
d="M64 448h256v-64h-192v-320h192v320h64v64h320v-64h64v-192h-64v-64h-256v-64h-64v-64h-320v64h-64v320h64v64zM448 384v-192h192v192h-192zM704 128h64v-64h-64v64zM448 64h256v-64h-256v64z" />
    <glyph glyph-name="Sacute" unicode="&#x15a;" horiz-adv-x="448" 
d="M192 768h128v-64h-64v-64h-128v64h64v64zM64 576h256v-64h-192v-128h192v-64h64v-256h-64v-64h-256v64h192v256h-192v64h-64v128h64v64zM0 128h64v-64h-64v64z" />
    <glyph glyph-name="sacute" unicode="&#x15b;" horiz-adv-x="448" 
d="M192 576h128v-64h-64v-64h-128v64h64v64zM64 384h256v-64h-192v-128h192v-64h64v-128h-64v-64h-256v64h192v128h-192v64h-64v128h64v64zM0 64h64v-64h-64v64z" />
    <glyph glyph-name="Scedilla" unicode="&#x15e;" horiz-adv-x="448" 
d="M64 576h256v-64h-192v-128h192v-64h64v-256h-64v-64h-64v-128h-128v64h64v64h-128v64h192v256h-192v64h-64v128h64v64zM0 128h64v-64h-64v64z" />
    <glyph glyph-name="scedilla" unicode="&#x15f;" horiz-adv-x="448" 
d="M64 384h256v-64h-192v-128h192v-64h64v-128h-64v-64h-64v-128h-128v64h64v64h-128v64h192v128h-192v64h-64v128h64v64zM0 64h64v-64h-64v64z" />
    <glyph glyph-name="Ydieresis" unicode="&#x178;" horiz-adv-x="448" 
d="M64 768h64v-128h-64v128zM256 768h64v-128h-64v128zM0 576h128v-320h128v320h128v-320h-64v-64h-64v-192h-128v192h-64v64h-64v320z" />
    <glyph glyph-name="Zacute" unicode="&#x179;" horiz-adv-x="448" 
d="M192 768h128v-64h-64v-64h-128v64h64v64zM0 576h384v-192h-64v-64h-64v-64h-64v-64h-64v-128h256v-64h-384v192h64v64h64v64h64v64h64v128h-256v64z" />
    <glyph glyph-name="zacute" unicode="&#x17a;" horiz-adv-x="448" 
d="M192 576h128v-64h-64v-64h-128v64h64v64zM0 384h384v-128h-64v-64h-64v-64h-64v-64h-64v-64h256v-64h-384v128h64v64h64v64h64v64h64v64h-256v64z" />
    <glyph glyph-name="Zdotaccent" unicode="&#x17b;" horiz-adv-x="448" 
d="M128 704h128v-64h-128v64zM0 576h384v-192h-64v-64h-64v-64h-64v-64h-64v-128h256v-64h-384v192h64v64h64v64h64v64h64v128h-256v64z" />
    <glyph glyph-name="zdotaccent" unicode="&#x17c;" horiz-adv-x="448" 
d="M128 512h128v-64h-128v64zM0 384h384v-128h-64v-64h-64v-64h-64v-64h-64v-64h256v-64h-384v128h64v64h64v64h64v64h64v64h-256v64z" />
    <glyph glyph-name="afii10023" unicode="&#x401;" horiz-adv-x="448" 
d="M128 704h64v-128h-64v128zM256 704h64v-128h-64v128zM64 512h320v-64h-256v-192h256v-64h-256v-192h256v-64h-320v64h-64v448h64v64z" />
    <glyph glyph-name="afii10017" unicode="&#x410;" horiz-adv-x="576" 
d="M192 512h128v-64h64v-128h64v-192h64v-192h-128v128h-256v-128h-128v192h64v192h64v128h64v64zM192 384v-256h128v256h-128z" />
    <glyph glyph-name="afii10018" unicode="&#x411;" 
d="M0 512h384v-64h-256v-192h256v-64h64v-192h-64v-64h-384v576zM128 192v-192h192v192h-192z" />
    <glyph glyph-name="afii10019" unicode="&#x412;" 
d="M0 512h384v-64h64v-192h-64v-64h64v-192h-64v-64h-384v576zM128 448v-192h192v192h-192zM128 192v-192h192v192h-192z" />
    <glyph glyph-name="afii10020" unicode="&#x413;" horiz-adv-x="448" 
d="M0 512h384v-64h-256v-512h-128v576z" />
    <glyph glyph-name="afii10021" unicode="&#x414;" horiz-adv-x="640" 
d="M256 512h256v-576h64v-128h-128v128h-320v-128h-128v128h64v128h64v192h64v192h64v64zM320 448v-192h-64v-192h-64v-64h192v448h-64z" />
    <glyph glyph-name="afii10022" unicode="&#x415;" horiz-adv-x="448" 
d="M64 512h320v-64h-256v-192h256v-64h-256v-192h256v-64h-320v64h-64v448h64v64z" />
    <glyph glyph-name="afii10024" unicode="&#x416;" horiz-adv-x="704" 
d="M0 512h128v-192h-64v64h-64v128zM256 512h128v-192h128v-64h-128v-64h128v-64h-128v-192h-128v192h-128v64h128v64h-128v64h128v192zM512 512h128v-128h-64v-64h-64v192zM64 128h64v-192h-128v128h64v64zM512 128h64v-64h64v-128h-128v192z" />
    <glyph glyph-name="afii10025" unicode="&#x417;" 
d="M0 512h384v-64h64v-192h-64v-64h64v-192h-64v-64h-384v64h320v192h-256v64h256v192h-320v64z" />
    <glyph glyph-name="afii10026" unicode="&#x418;" 
d="M0 512h128v-384h64v-128h-64v-64h-128v576zM320 512h128v-576h-128v320h-64v128h64v128zM192 256h64v-128h-64v128z" />
    <glyph glyph-name="afii10027" unicode="&#x419;" 
d="M64 704h128v-64h64v64h128v-64h-64v-64h-192v64h-64v64zM0 512h128v-384h64v-128h-64v-64h-128v576zM320 512h128v-576h-128v320h-64v128h64v128zM192 256h64v-128h-64v128z" />
    <glyph glyph-name="afii10028" unicode="&#x41a;" 
d="M0 512h128v-256h128v64h64v192h128v-192h-64v-64h-64v-64h64v-64h64v-192h-128v192h-64v64h-128v-256h-128v576z" />
    <glyph glyph-name="afii10029" unicode="&#x41b;" horiz-adv-x="576" 
d="M64 512h448v-576h-128v512h-192v-448h-64v-64h-128v64h64v512z" />
    <glyph glyph-name="afii10030" unicode="&#x41c;" 
d="M0 512h128v-64h64v-128h-64v-384h-128v576zM320 512h128v-576h-128v384h-64v128h64v64zM192 320h64v-64h-64v64z" />
    <glyph glyph-name="afii10031" unicode="&#x41d;" 
d="M0 512h128v-256h192v256h128v-576h-128v256h-192v-256h-128v576z" />
    <glyph glyph-name="afii10032" unicode="&#x41e;" 
d="M64 512h320v-64h64v-448h-64v-64h-320v64h-64v448h64v64zM128 448v-448h192v448h-192z" />
    <glyph glyph-name="afii10033" unicode="&#x41f;" 
d="M0 512h448v-576h-128v512h-192v-512h-128v576z" />
    <glyph glyph-name="afii10034" unicode="&#x420;" 
d="M0 512h128v-64h64v-64h-64v-192h192v256h-128v64h192v-64h64v-256h-64v-64h-256v-192h-128v576z" />
    <glyph glyph-name="afii10035" unicode="&#x421;" horiz-adv-x="448" 
d="M64 576h320v-64h-256v-448h256v-64h-320v64h-64v448h64v64z" />
    <glyph glyph-name="afii10036" unicode="&#x422;" horiz-adv-x="448" 
d="M0 576h384v-64h-128v-512h-128v512h-128v64z" />
    <glyph glyph-name="afii10037" unicode="&#x423;" 
d="M0 576h128v-320h-64v64h-64v256zM320 576h128v-384h-64v-64h-64v-64h-64v-64h-192v64h128v64h64v64h-128v64h192v320z" />
    <glyph glyph-name="afii10038" unicode="&#x424;" horiz-adv-x="704" 
d="M256 576h128v-64h192v-64h64v-320h-64v-64h-192v-64h-128v64h-192v64h-64v320h64v64h192v64zM128 448v-320h128v320h-128zM384 448v-320h128v320h-128z" />
    <glyph glyph-name="afii10039" unicode="&#x425;" 
d="M0 576h128v-256h192v256h128v-256h-64v-64h64v-256h-128v256h-192v-256h-128v256h64v64h-64v256z" />
    <glyph glyph-name="afii10040" unicode="&#x426;" horiz-adv-x="576" 
d="M0 576h128v-512h192v512h128v-576h64v-128h-128v128h-320v64h-64v512z" />
    <glyph glyph-name="afii10041" unicode="&#x427;" 
d="M0 576h128v-320h192v320h128v-576h-128v192h-256v64h-64v320z" />
    <glyph glyph-name="afii10042" unicode="&#x428;" horiz-adv-x="704" 
d="M0 576h128v-512h128v512h128v-512h128v512h128v-512h-64v-64h-576v576z" />
    <glyph glyph-name="afii10043" unicode="&#x429;" horiz-adv-x="768" 
d="M0 576h128v-512h128v512h128v-512h128v512h128v-576h64v-128h-128v128h-576v576z" />
    <glyph glyph-name="afii10044" unicode="&#x42a;" horiz-adv-x="576" 
d="M0 576h192v-256h256v-64h64v-192h-64v-64h-384v512h-64v64zM192 256v-192h192v192h-192z" />
    <glyph glyph-name="afii10045" unicode="&#x42b;" horiz-adv-x="640" 
d="M0 576h128v-256h256v-64h64v320h128v-576h-128v64h-64v-64h-384v576zM128 256v-192h192v192h-192z" />
    <glyph glyph-name="afii10046" unicode="&#x42c;" 
d="M0 576h128v-256h256v-64h64v-192h-64v-64h-384v576zM128 256v-192h192v192h-192z" />
    <glyph glyph-name="afii10047" unicode="&#x42d;" 
d="M64 576h256v-64h64v-64h64v-320h-64v-64h-64v-64h-256v64h-64v64h128v-64h128v64h64v128h-256v64h256v128h-64v64h-128v-64h-128v64h64v64z" />
    <glyph glyph-name="afii10048" unicode="&#x42e;" horiz-adv-x="640" 
d="M0 576h128v-256h64v192h64v64h256v-64h64v-448h-64v-64h-256v64h-64v192h-64v-256h-128v576zM320 512v-448h128v448h-128z" />
    <glyph glyph-name="afii10049" unicode="&#x42f;" 
d="M64 576h384v-576h-128v192h-128v-64h-64v-128h-128v128h64v64h64v64h-64v64h-64v192h64v64zM128 512v-192h64v-64h128v256h-192z" />
    <glyph glyph-name="afii10065" unicode="&#x430;" horiz-adv-x="576" 
d="M192 448h128v-64h64v-128h64v-128h64v-128h-128v128h-256v-128h-128v128h64v128h64v128h64v64zM192 320v-128h128v128h-128z" />
    <glyph glyph-name="afii10066" unicode="&#x431;" 
d="M0 448h384v-64h-256v-64h256v-64h64v-192h-64v-64h-384v448zM128 256v-192h192v192h-192z" />
    <glyph glyph-name="afii10067" unicode="&#x432;" 
d="M0 448h384v-64h64v-128h-64v-64h64v-128h-64v-64h-384v448zM128 384v-128h192v128h-192zM128 192v-128h192v128h-192z" />
    <glyph glyph-name="afii10068" unicode="&#x433;" horiz-adv-x="448" 
d="M0 448h384v-64h-256v-384h-128v448z" />
    <glyph glyph-name="afii10069" unicode="&#x434;" horiz-adv-x="576" 
d="M192 448h256v-448h64v-128h-128v128h-256v-128h-128v128h64v192h64v192h64v64zM256 384v-192h-64v-128h128v320h-64z" />
    <glyph glyph-name="afii10070" unicode="&#x435;" horiz-adv-x="448" 
d="M64 448h320v-64h-256v-128h256v-64h-256v-128h256v-64h-320v64h-64v320h64v64z" />
    <glyph glyph-name="afii10072" unicode="&#x436;" horiz-adv-x="576" 
d="M0 448h128v-128h64v128h128v-128h64v128h128v-128h-64v-64h-128v-64h128v-64h64v-128h-128v128h-64v-128h-128v128h-64v-128h-128v128h64v64h128v64h-128v64h-64v128z" />
    <glyph glyph-name="afii10073" unicode="&#x437;" 
d="M0 448h384v-64h64v-128h-64v-64h64v-128h-64v-64h-384v64h320v128h-256v64h256v128h-320v64z" />
    <glyph glyph-name="afii10074" unicode="&#x438;" 
d="M0 448h128v-320h64v-128h-192v448zM320 448h128v-448h-128v256h-64v128h64v64zM192 256h64v-128h-64v128z" />
    <glyph glyph-name="afii10075" unicode="&#x439;" 
d="M64 640h128v-64h64v64h128v-64h-64v-64h-192v64h-64v64zM0 448h128v-320h64v-128h-192v448zM320 448h128v-448h-128v256h-64v128h64v64zM192 256h64v-128h-64v128z" />
    <glyph glyph-name="afii10076" unicode="&#x43a;" 
d="M0 448h128v-192h128v64h64v128h128v-128h-64v-64h-64v-64h64v-64h64v-128h-128v128h-64v64h-128v-192h-128v448z" />
    <glyph glyph-name="afii10077" unicode="&#x43b;" horiz-adv-x="576" 
d="M64 448h448v-448h-128v384h-192v-320h-64v-64h-128v64h64v384z" />
    <glyph glyph-name="afii10078" unicode="&#x43c;" 
d="M0 448h128v-64h64v-128h-64v-256h-128v448zM320 448h128v-448h-128v256h-64v128h64v64zM192 256h64v-64h-64v64z" />
    <glyph glyph-name="afii10079" unicode="&#x43d;" 
d="M0 448h128v-192h192v192h128v-448h-128v192h-192v-192h-128v448z" />
    <glyph glyph-name="afii10080" unicode="&#x43e;" 
d="M64 448h320v-64h64v-320h-64v-64h-320v64h-64v320h64v64zM128 384v-320h192v320h-192z" />
    <glyph glyph-name="afii10081" unicode="&#x43f;" 
d="M0 448h448v-448h-128v384h-192v-384h-128v448z" />
    <glyph glyph-name="afii10082" unicode="&#x440;" 
d="M0 448h128v-64h64v-64h-64v-128h192v192h-128v64h192v-64h64v-192h-64v-64h-256v-128h-128v448z" />
    <glyph glyph-name="afii10083" unicode="&#x441;" horiz-adv-x="448" 
d="M64 448h320v-64h-256v-320h256v-64h-320v64h-64v320h64v64z" />
    <glyph glyph-name="afii10084" unicode="&#x442;" horiz-adv-x="448" 
d="M0 448h384v-64h-128v-384h-128v384h-128v64z" />
    <glyph glyph-name="afii10085" unicode="&#x443;" 
d="M0 448h128v-320h-64v64h-64v256zM320 448h128v-384h-64v-64h-64v-64h-64v-64h-192v64h128v64h64v64h-128v64h192v320z" />
    <glyph glyph-name="afii10086" unicode="&#x444;" horiz-adv-x="704" 
d="M256 576h128v-128h192v-64h64v-320h-64v-64h-192v-128h-128v128h-192v64h-64v320h64v64h192v128zM128 384v-320h128v320h-128zM384 384v-320h128v320h-128z" />
    <glyph glyph-name="afii10087" unicode="&#x445;" 
d="M0 448h128v-192h192v192h128v-192h-64v-64h64v-192h-128v192h-192v-192h-128v192h64v64h-64v192z" />
    <glyph glyph-name="afii10088" unicode="&#x446;" horiz-adv-x="576" 
d="M0 448h128v-384h192v384h128v-448h64v-128h-128v128h-320v64h-64v384z" />
    <glyph glyph-name="afii10089" unicode="&#x447;" 
d="M0 448h128v-256h192v256h128v-448h-128v128h-256v64h-64v256z" />
    <glyph glyph-name="afii10090" unicode="&#x448;" horiz-adv-x="704" 
d="M0 448h128v-384h128v384h128v-384h128v384h128v-384h-64v-64h-576v448z" />
    <glyph glyph-name="afii10091" unicode="&#x449;" horiz-adv-x="768" 
d="M0 448h128v-384h128v384h128v-384h128v384h128v-448h64v-128h-128v128h-576v448z" />
    <glyph glyph-name="afii10092" unicode="&#x44a;" horiz-adv-x="576" 
d="M0 448h192v-128h256v-64h64v-192h-64v-64h-384v384h-64v64zM192 256v-192h192v192h-192z" />
    <glyph glyph-name="afii10093" unicode="&#x44b;" horiz-adv-x="640" 
d="M0 448h128v-128h256v-64h64v192h128v-448h-128v64h-64v-64h-384v448zM128 256v-192h192v192h-192z" />
    <glyph glyph-name="afii10094" unicode="&#x44c;" 
d="M0 448h128v-128h256v-64h64v-192h-64v-64h-384v448zM128 256v-192h192v192h-192z" />
    <glyph glyph-name="afii10095" unicode="&#x44d;" 
d="M64 448h256v-64h64v-64h64v-192h-64v-64h-64v-64h-256v64h-64v64h128v-64h128v64h64v64h-192v64h192v64h-64v64h-128v-64h-128v64h64v64z" />
    <glyph glyph-name="afii10096" unicode="&#x44e;" horiz-adv-x="640" 
d="M0 448h128v-192h64v128h64v64h256v-64h64v-320h-64v-64h-256v64h-64v128h-64v-192h-128v448zM320 384v-320h128v320h-128z" />
    <glyph glyph-name="afii10097" unicode="&#x44f;" 
d="M64 448h384v-448h-128v128h-128v-64h-64v-64h-128v64h64v64h64v64h-64v64h-64v128h64v64zM128 384v-128h64v-64h128v192h-192z" />
    <glyph glyph-name="afii10071" unicode="&#x451;" horiz-adv-x="448" 
d="M128 640h64v-128h-64v128zM256 640h64v-128h-64v128zM64 448h320v-64h-256v-128h256v-64h-256v-128h256v-64h-320v64h-64v320h64v64z" />
    <glyph glyph-name="uni1E9E" unicode="&#x1e9e;" horiz-adv-x="576" 
d="M192 576h192v-64h64v-192h-64v-64h-64v-64h-64v128h64v192h-128v64zM128 512h64v-448h-64v-64h-128v64h64v384h64v64zM384 256h64v-64h64v-128h-64v-64h-128v-64h-64v128h128v192z" />
    <glyph glyph-name="Euro" unicode="&#x20ac;" 
d="M128 576h320v-64h-256v-128h192v-64h-192v-64h192v-64h-192v-128h256v-64h-320v64h-64v128h-64v64h64v64h-64v64h64v128h64v64z" />
    <glyph glyph-name="glyph1" horiz-adv-x="64" 
 />
  </font>
</defs>
</svg>
