<?xml version="1.0" standalone="no"?>
<!DOCTYPE svg PUBLIC "-//W3C//DTD SVG 1.1//EN" "http://www.w3.org/Graphics/SVG/1.1/DTD/svg11.dtd" >
<svg>
<metadata>
Created by FontForge 20090914 at Sat May  2 16:41:10 2020
 By www-data
somepx
</metadata>
<defs>
<font id="ImprovGOLD" horiz-adv-x="256" >
  <font-face 
    font-family="ImprovGOLD"
    font-weight="500"
    font-stretch="normal"
    units-per-em="1024"
    panose-1="2 0 6 3 0 0 0 0 0 0"
    ascent="768"
    descent="-256"
    x-height="320"
    cap-height="320"
    bbox="0 -64 320 682"
    underline-thickness="51"
    underline-position="-103"
    unicode-range="U+0020-U+3000"
  />
<missing-glyph horiz-adv-x="374" 
d="M34 0v682h272v-682h-272zM68 34h204v614h-204v-614z" />
    <glyph glyph-name=".notdef" horiz-adv-x="374" 
d="M34 0v682h272v-682h-272zM68 34h204v614h-204v-614z" />
    <glyph glyph-name="space" unicode=" " horiz-adv-x="320" 
 />
    <glyph glyph-name="exclam" unicode="!" horiz-adv-x="128" 
d="M0 0v64h64v-64h-64zM0 128v64v64v64h64v-64v-64v-64h-64z" />
    <glyph glyph-name="quotedbl" unicode="&#x22;" horiz-adv-x="320" 
d="M192 192v64h64v-64h-64zM64 192v64h64v-64h-64zM192 256h-64v64v64h64v-64v-64zM64 256h-64v64v64h64v-64v-64z" />
    <glyph glyph-name="numbersign" unicode="#" horiz-adv-x="384" 
d="M192 0v64h-64v-64h-64v64h-64v64h64v64h-64v64h64v64h64v-64h64v64h64v-64h64v-64h-64v-64h64v-64h-64v-64h-64zM192 128v64h-64v-64h64z" />
    <glyph glyph-name="dollar" unicode="$" 
d="M64 -64v64h-64v64h64h64v64h64v-64v-64h-64v-64h-64zM128 128h-64v64h64v-64zM64 192h-64v64h64v-64zM64 256v64v64h64v-64h64v-64h-64h-64z" />
    <glyph glyph-name="percent" unicode="%" horiz-adv-x="320" 
d="M192 0v64h64v-64h-64zM64 0v64v64v64h64v64v64h64v-64v-64v-64h-64v-64v-64h-64zM64 192h-64v64h64v-64z" />
    <glyph glyph-name="ampersand" unicode="&#x26;" horiz-adv-x="320" 
d="M192 0h-64h-64h-64v64v64h64v-64h64v64h64v-64h64v-64h-64zM192 128v64h64v-64h-64zM128 128h-64v64h64v-64zM192 192h-64v64h-64v-64h-64v64h64v64h64h64v-64v-64z" />
    <glyph glyph-name="quotesingle" unicode="'" horiz-adv-x="128" 
d="M0 192v64v64h64v-64v-64h-64z" />
    <glyph glyph-name="parenleft" unicode="(" horiz-adv-x="192" 
d="M64 0v64h64v-64h-64zM64 64h-64v64v64v64h64v-64v-64v-64zM64 256v64h64v-64h-64z" />
    <glyph glyph-name="parenright" unicode=")" horiz-adv-x="192" 
d="M0 0v64h64v-64h-64zM64 64v64v64v64h64v-64v-64v-64h-64zM64 256h-64v64h64v-64z" />
    <glyph glyph-name="asterisk" unicode="*" 
d="M128 64v64h64v-64h-64zM0 64v64h64v-64h-64zM128 128h-64v64h64v-64zM128 192v64h64v-64h-64zM64 192h-64v64h64v-64z" />
    <glyph glyph-name="plus" unicode="+" 
d="M64 64v64h-64v64h64v64h64v-64h64v-64h-64v-64h-64z" />
    <glyph glyph-name="comma" unicode="," horiz-adv-x="192" 
d="M0 -64v64h64v-64h-64zM64 0v64h64v-64h-64z" />
    <glyph glyph-name="hyphen" unicode="-" 
d="M128 192h64v-64h-64h-64h-64v64h64h64z" />
    <glyph glyph-name="period" unicode="." horiz-adv-x="128" 
d="M0 0v64h64v-64h-64z" />
    <glyph glyph-name="slash" unicode="/" horiz-adv-x="192" 
d="M0 0v64v64h64v-64v-64h-64zM64 128v64v64v64h64v-64v-64v-64h-64z" />
    <glyph glyph-name="zero" unicode="0" 
d="M64 0v64h64v-64h-64zM128 64v64v64v64h64v-64v-64v-64h-64zM64 64h-64v64v64v64h64v-64v-64v-64zM128 256h-64v64h64v-64z" />
    <glyph glyph-name="one" unicode="1" 
d="M128 0h-64h-64v64h64v64v64h-64v64h64v64h64v-64v-64v-64v-64h64v-64h-64z" />
    <glyph glyph-name="two" unicode="2" 
d="M128 0h-64h-64v64h64v64h64v-64h64v-64h-64zM128 128v64v64h64v-64v-64h-64zM128 256h-64h-64v64h64h64v-64z" />
    <glyph glyph-name="three" unicode="3" 
d="M64 64h64v-64h-64h-64v64h64zM128 64v64h64v-64h-64zM128 128h-64v64h64v-64zM128 192v64h64v-64h-64zM128 256h-64h-64v64h64h64v-64z" />
    <glyph glyph-name="four" unicode="4" 
d="M128 0v64v64h-64h-64v64v64v64h64v-64v-64h64v64v64h64v-64v-64v-64v-64v-64h-64z" />
    <glyph glyph-name="five" unicode="5" 
d="M128 0h-64h-64v64h64h64v64h64v-64v-64h-64zM128 128h-64h-64v64v64v64h64h64h64v-64h-64h-64v-64h64v-64z" />
    <glyph glyph-name="six" unicode="6" 
d="M128 0h-64h-64v64v64v64v64h64v-64h64h64v-64v-64v-64h-64zM128 64v64h-64v-64h64zM64 256v64h64v-64h-64z" />
    <glyph glyph-name="seven" unicode="7" 
d="M64 0v64v64v64h64v-64v-64v-64h-64zM128 192v64h-64h-64v64h64h64h64v-64v-64h-64z" />
    <glyph glyph-name="eight" unicode="8" 
d="M128 0h-64h-64v64v64h64v-64h64v64h64v-64v-64h-64zM128 128h-64v64h64v-64zM128 192v64h-64v-64h-64v64v64h64h64h64v-64v-64h-64z" />
    <glyph glyph-name="nine" unicode="9" 
d="M64 64h64v-64h-64h-64v64h64zM128 64v64h-64h-64v64v64v64h64h64h64v-64v-64v-64v-64h-64zM128 192v64h-64v-64h64z" />
    <glyph glyph-name="colon" unicode=":" horiz-adv-x="128" 
d="M0 0v64h64v-64h-64zM0 128v64h64v-64h-64z" />
    <glyph glyph-name="semicolon" unicode=";" horiz-adv-x="192" 
d="M0 -64v64h64v-64h-64zM64 128v64h64v-64h-64zM64 0v64h64v-64h-64z" />
    <glyph glyph-name="less" unicode="&#x3c;" horiz-adv-x="192" 
d="M64 64v64h64v-64h-64zM64 128h-64v64h64v-64zM64 192v64h64v-64h-64z" />
    <glyph glyph-name="equal" unicode="=" 
d="M128 128h64v-64h-64h-64h-64v64h64h64zM128 256h64v-64h-64h-64h-64v64h64h64z" />
    <glyph glyph-name="greater" unicode="&#x3e;" horiz-adv-x="192" 
d="M0 64v64h64v-64h-64zM64 128v64h64v-64h-64zM64 192h-64v64h64v-64z" />
    <glyph glyph-name="question" unicode="?" 
d="M64 0v64h64v-64h-64zM64 128v64h64v-64h-64zM128 192v64h-64h-64v64h64h64h64v-64v-64h-64z" />
    <glyph glyph-name="at" unicode="@" horiz-adv-x="320" 
d="M128 -64v64h64v-64h-64zM192 0v64v64v64h64v-64v-64v-64h-64zM128 0h-64h-64v64v64v64h64v-64h64v-64v-64zM192 192h-64h-64v64h64h64v-64z" />
    <glyph glyph-name="A" unicode="A" 
d="M128 0v64v64h-64v-64v-64h-64v64v64v64v64v64h64h64h64v-64v-64v-64v-64v-64h-64zM128 192v64h-64v-64h64z" />
    <glyph glyph-name="B" unicode="B" 
d="M128 0h-64h-64v64v64v64v64v64h64h64h64v-64v-64h-64v64h-64v-64h64v-64h-64v-64h64v64h64v-64v-64h-64z" />
    <glyph glyph-name="C" unicode="C" 
d="M128 64h64v-64h-64h-64h-64v64v64v64v64v64h64h64h64v-64h-64h-64v-64v-64v-64h64z" />
    <glyph glyph-name="D" unicode="D" 
d="M64 0h-64v64v64v64v64v64h64h64v-64h64v-64v-64v-64h-64v64v64v64h-64v-64v-64v-64h64v-64h-64z" />
    <glyph glyph-name="E" unicode="E" 
d="M128 64h64v-64h-64h-64h-64v64v64v64v64v64h64h64h64v-64h-64h-64v-64h64v-64h-64v-64h64z" />
    <glyph glyph-name="F" unicode="F" 
d="M0 0v64v64v64v64v64h64h64h64v-64h-64h-64v-64h64v-64h-64v-64v-64h-64z" />
    <glyph glyph-name="G" unicode="G" 
d="M128 0h-64v64h64v64v64h64v-64v-64v-64h-64zM64 64h-64v64v64v64v64h64h64h64v-64h-64h-64v-64v-64v-64z" />
    <glyph glyph-name="H" unicode="H" 
d="M128 0v64v64h-64v-64v-64h-64v64v64v64v64v64h64v-64v-64h64v64v64h64v-64v-64v-64v-64v-64h-64z" />
    <glyph glyph-name="I" unicode="I" horiz-adv-x="128" 
d="M0 0v64v64v64v64v64h64v-64v-64v-64v-64v-64h-64z" />
    <glyph glyph-name="J" unicode="J" 
d="M64 0h-64v64v64h64v-64h64v-64h-64zM128 64v64v64v64h-64v64h64h64v-64v-64v-64v-64h-64z" />
    <glyph glyph-name="K" unicode="K" 
d="M128 0v64h-64v-64h-64v64v64v64v64v64h64v-64v-64h64v-64h64v-64v-64h-64zM128 192v64v64h64v-64v-64h-64z" />
    <glyph glyph-name="L" unicode="L" 
d="M128 64h64v-64h-64h-64h-64v64v64v64v64v64h64v-64v-64v-64v-64h64z" />
    <glyph glyph-name="M" unicode="M" 
d="M128 0v64v64v64h-64v-64v-64v-64h-64v64v64v64v64v64h64h64h64v-64v-64v-64v-64v-64h-64z" />
    <glyph glyph-name="N" unicode="N" 
d="M128 0v64v64v64v64h64v-64v-64v-64v-64h-64zM0 0v64v64v64v64v64h64h64v-64h-64v-64v-64v-64v-64h-64z" />
    <glyph glyph-name="O" unicode="O" 
d="M128 0h-64h-64v64v64v64v64v64h64h64h64v-64v-64v-64v-64v-64h-64zM128 64v64v64v64h-64v-64v-64v-64h64z" />
    <glyph glyph-name="P" unicode="P" 
d="M0 0v64v64v64v64v64h64h64v-64h-64v-64v-64h64v64v64h64v-64v-64v-64h-64h-64v-64h-64z" />
    <glyph glyph-name="Q" unicode="Q" 
d="M128 -64h-64v64h-64v64v64v64v64v64h64h64h64v-64v-64v-64v-64h-64v64v64v64h-64v-64v-64v-64h64v-64h64v-64h-64z" />
    <glyph glyph-name="R" unicode="R" 
d="M128 0v64h64v-64h-64zM0 0v64v64v64v64v64h64h64h64v-64v-64v-64h-64v64v64h-64v-64v-64h64v-64h-64v-64h-64z" />
    <glyph glyph-name="S" unicode="S" 
d="M128 0h-64h-64v64h64h64v64h64v-64v-64h-64zM128 128h-64v64h64v-64zM64 192h-64v64h64v-64zM128 320h64v-64h-64h-64v64h64z" />
    <glyph glyph-name="T" unicode="T" 
d="M64 0v64v64v64v64h-64v64h64h64h64v-64h-64v-64v-64v-64v-64h-64z" />
    <glyph glyph-name="U" unicode="U" 
d="M128 0h-64h-64v64v64v64v64v64h64v-64v-64v-64v-64h64v64v64v64v64h64v-64v-64v-64v-64v-64h-64z" />
    <glyph glyph-name="V" unicode="V" 
d="M64 0h-64v64v64v64v64v64h64v-64v-64v-64h64v-64v-64h-64zM128 128v64v64v64h64v-64v-64v-64h-64z" />
    <glyph glyph-name="W" unicode="W" 
d="M128 0h-64h-64v64v64v64v64v64h64v-64v-64v-64h64v64v64v64h64v-64v-64v-64v-64v-64h-64z" />
    <glyph glyph-name="X" unicode="X" 
d="M128 0v64h-64v-64h-64v64v64h64v64h-64v64v64h64v-64h64v64h64v-64v-64h-64v-64h64v-64v-64h-64z" />
    <glyph glyph-name="Y" unicode="Y" 
d="M64 0v64v64h-64v64v64v64h64v-64v-64h64v64v64h64v-64v-64v-64h-64v-64v-64h-64z" />
    <glyph glyph-name="Z" unicode="Z" 
d="M128 64h64v-64h-64h-64h-64v64v64h64v-64h64zM64 128v64h64v-64h-64zM128 192v64h-64h-64v64h64h64h64v-64v-64h-64z" />
    <glyph glyph-name="bracketleft" unicode="[" horiz-adv-x="192" 
d="M64 0h-64v64v64v64v64v64h64h64v-64h-64v-64v-64v-64h64v-64h-64z" />
    <glyph glyph-name="backslash" unicode="\" horiz-adv-x="192" 
d="M64 0v64v64v64h64v-64v-64v-64h-64zM64 192h-64v64v64h64v-64v-64z" />
    <glyph glyph-name="bracketright" unicode="]" horiz-adv-x="192" 
d="M64 0h-64v64h64v64v64v64h-64v64h64h64v-64v-64v-64v-64v-64h-64z" />
    <glyph glyph-name="asciicircum" unicode="^" 
d="M128 192v64h64v-64h-64zM0 192v64h64v-64h-64zM128 256h-64v64h64v-64z" />
    <glyph glyph-name="underscore" unicode="_" 
d="M128 0h64v-64h-64h-64h-64v64h64h64z" />
    <glyph glyph-name="grave" unicode="`" horiz-adv-x="192" 
d="M64 192v64h64v-64h-64zM64 256h-64v64h64v-64z" />
    <glyph glyph-name="a" unicode="a" 
d="M128 0v64v64h-64v-64v-64h-64v64v64v64v64v64h64h64h64v-64v-64v-64v-64v-64h-64zM128 192v64h-64v-64h64z" />
    <glyph glyph-name="b" unicode="b" 
d="M128 0h-64h-64v64v64v64v64v64h64h64h64v-64v-64h-64v64h-64v-64h64v-64h-64v-64h64v64h64v-64v-64h-64z" />
    <glyph glyph-name="c" unicode="c" 
d="M128 64h64v-64h-64h-64h-64v64v64v64v64v64h64h64h64v-64h-64h-64v-64v-64v-64h64z" />
    <glyph glyph-name="d" unicode="d" 
d="M64 0h-64v64v64v64v64v64h64h64v-64h64v-64v-64v-64h-64v64v64v64h-64v-64v-64v-64h64v-64h-64z" />
    <glyph glyph-name="e" unicode="e" 
d="M128 64h64v-64h-64h-64h-64v64v64v64v64v64h64h64h64v-64h-64h-64v-64h64v-64h-64v-64h64z" />
    <glyph glyph-name="f" unicode="f" 
d="M0 0v64v64v64v64v64h64h64h64v-64h-64h-64v-64h64v-64h-64v-64v-64h-64z" />
    <glyph glyph-name="g" unicode="g" 
d="M128 0h-64v64h64v64v64h64v-64v-64v-64h-64zM64 64h-64v64v64v64v64h64h64h64v-64h-64h-64v-64v-64v-64z" />
    <glyph glyph-name="h" unicode="h" 
d="M128 0v64v64h-64v-64v-64h-64v64v64v64v64v64h64v-64v-64h64v64v64h64v-64v-64v-64v-64v-64h-64z" />
    <glyph glyph-name="i" unicode="i" horiz-adv-x="128" 
d="M0 0v64v64v64v64v64h64v-64v-64v-64v-64v-64h-64z" />
    <glyph glyph-name="j" unicode="j" 
d="M64 0h-64v64v64h64v-64h64v-64h-64zM128 64v64v64v64h-64v64h64h64v-64v-64v-64v-64h-64z" />
    <glyph glyph-name="k" unicode="k" 
d="M128 0v64h-64v-64h-64v64v64v64v64v64h64v-64v-64h64v-64h64v-64v-64h-64zM128 192v64v64h64v-64v-64h-64z" />
    <glyph glyph-name="l" unicode="l" 
d="M128 64h64v-64h-64h-64h-64v64v64v64v64v64h64v-64v-64v-64v-64h64z" />
    <glyph glyph-name="m" unicode="m" 
d="M128 0v64v64v64h-64v-64v-64v-64h-64v64v64v64v64v64h64h64h64v-64v-64v-64v-64v-64h-64z" />
    <glyph glyph-name="n" unicode="n" 
d="M128 0v64v64v64v64h64v-64v-64v-64v-64h-64zM0 0v64v64v64v64v64h64h64v-64h-64v-64v-64v-64v-64h-64z" />
    <glyph glyph-name="o" unicode="o" 
d="M128 0h-64h-64v64v64v64v64v64h64h64h64v-64v-64v-64v-64v-64h-64zM128 64v64v64v64h-64v-64v-64v-64h64z" />
    <glyph glyph-name="p" unicode="p" 
d="M0 0v64v64v64v64v64h64h64v-64h-64v-64v-64h64v64v64h64v-64v-64v-64h-64h-64v-64h-64z" />
    <glyph glyph-name="q" unicode="q" 
d="M128 -64h-64v64h-64v64v64v64v64v64h64h64h64v-64v-64v-64v-64h-64v64v64v64h-64v-64v-64v-64h64v-64h64v-64h-64z" />
    <glyph glyph-name="r" unicode="r" 
d="M128 0v64h64v-64h-64zM0 0v64v64v64v64v64h64h64h64v-64v-64v-64h-64v64v64h-64v-64v-64h64v-64h-64v-64h-64z" />
    <glyph glyph-name="s" unicode="s" 
d="M128 0h-64h-64v64h64h64v64h64v-64v-64h-64zM128 128h-64v64h64v-64zM64 192h-64v64h64v-64zM128 320h64v-64h-64h-64v64h64z" />
    <glyph glyph-name="t" unicode="t" 
d="M64 0v64v64v64v64h-64v64h64h64h64v-64h-64v-64v-64v-64v-64h-64z" />
    <glyph glyph-name="u" unicode="u" 
d="M128 0h-64h-64v64v64v64v64v64h64v-64v-64v-64v-64h64v64v64v64v64h64v-64v-64v-64v-64v-64h-64z" />
    <glyph glyph-name="v" unicode="v" 
d="M64 0h-64v64v64v64v64v64h64v-64v-64v-64h64v-64v-64h-64zM128 128v64v64v64h64v-64v-64v-64h-64z" />
    <glyph glyph-name="w" unicode="w" 
d="M128 0h-64h-64v64v64v64v64v64h64v-64v-64v-64h64v64v64v64h64v-64v-64v-64v-64v-64h-64z" />
    <glyph glyph-name="x" unicode="x" 
d="M128 0v64h-64v-64h-64v64v64h64v64h-64v64v64h64v-64h64v64h64v-64v-64h-64v-64h64v-64v-64h-64z" />
    <glyph glyph-name="y" unicode="y" 
d="M64 0v64v64h-64v64v64v64h64v-64v-64h64v64v64h64v-64v-64v-64h-64v-64v-64h-64z" />
    <glyph glyph-name="z" unicode="z" 
d="M128 64h64v-64h-64h-64h-64v64v64h64v-64h64zM64 128v64h64v-64h-64zM128 192v64h-64h-64v64h64h64h64v-64v-64h-64z" />
    <glyph glyph-name="braceleft" unicode="{" horiz-adv-x="192" 
d="M64 0v64h64v-64h-64zM64 64h-64v64h64v-64zM64 128v64h64v-64h-64zM64 192h-64v64h64v-64zM64 256v64h64v-64h-64z" />
    <glyph glyph-name="bar" unicode="|" horiz-adv-x="128" 
d="M0 0v64v64v64v64v64h64v-64v-64v-64v-64v-64h-64z" />
    <glyph glyph-name="braceright" unicode="}" horiz-adv-x="192" 
d="M0 0v64h64v-64h-64zM64 64v64h64v-64h-64zM64 128h-64v64h64v-64zM64 192v64h64v-64h-64zM64 256h-64v64h64v-64z" />
    <glyph glyph-name="asciitilde" unicode="~" horiz-adv-x="320" 
d="M128 64v64h64v-64h-64zM192 128v64h64v-64h-64zM128 128h-64h-64v64h64v64h64v-64v-64z" />
    <glyph glyph-name="uni00A0" unicode="&#xa0;" horiz-adv-x="320" 
 />
    <glyph glyph-name="exclamdown" unicode="&#xa1;" horiz-adv-x="128" 
d="M0 -64v64v64v64h64v-64v-64v-64h-64zM0 192v64h64v-64h-64z" />
    <glyph glyph-name="cent" unicode="&#xa2;" 
d="M64 -64v64v64h64h64v-64h-64v-64h-64zM64 64h-64v64v64h64v-64v-64zM64 192v64v64h64v-64h64v-64h-64h-64z" />
    <glyph glyph-name="sterling" unicode="&#xa3;" horiz-adv-x="320" 
d="M192 64h64v-64h-64h-64h-64h-64v64h64v64h-64v64h64v64h64v-64h64v-64h-64v-64h64zM192 320h64v-64h-64h-64v64h64z" />
    <glyph glyph-name="copyright" unicode="&#xa9;" 
d="M128 128h64v-64h-64h-64h-64v64v64v64h64h64h64v-64h-64h-64v-64h64z" />
    <glyph glyph-name="registered" unicode="&#xae;" 
d="M128 64v64h64v-64h-64zM0 64v64v64v64h64h64h64v-64h-64v-64h-64v-64h-64z" />
    <glyph glyph-name="degree" unicode="&#xb0;" 
d="M64 128v64h64v-64h-64zM128 192v64h64v-64h-64zM64 192h-64v64h64v-64zM128 256h-64v64h64v-64z" />
    <glyph glyph-name="questiondown" unicode="&#xbf;" 
d="M64 192v64h64v-64h-64zM128 0h64v-64h-64h-64h-64v64v64h64v-64h64zM64 64v64h64v-64h-64z" />
    <glyph glyph-name="Agrave" unicode="&#xc0;" 
d="M128 0v64h-64v-64h-64v64v64v64v64h64v64h64v-64h64v-64v-64v-64v-64h-64zM128 128v64h-64v-64h64zM64 320h-64v64h64v-64z" />
    <glyph glyph-name="Aacute" unicode="&#xc1;" 
d="M128 0v64h-64v-64h-64v64v64v64v64h64v64h64v-64h64v-64v-64v-64v-64h-64zM128 128v64h-64v-64h64zM128 320v64h64v-64h-64z" />
    <glyph glyph-name="Acircumflex" unicode="&#xc2;" 
d="M128 0v64h-64v-64h-64v64v64v64v64h64h64h64v-64v-64v-64v-64h-64zM128 320v64h64v-64h-64zM0 320v64h64v-64h-64zM128 128v64h-64v-64h64zM128 384h-64v64h64v-64z" />
    <glyph glyph-name="Atilde" unicode="&#xc3;" 
d="M128 0v64h-64v-64h-64v64v64v64v64h64h64h64v-64v-64v-64v-64h-64zM128 320v64h-64v-64h-64v64h64v64h64h64v-64v-64h-64zM128 128v64h-64v-64h64z" />
    <glyph glyph-name="Adieresis" unicode="&#xc4;" 
d="M128 0v64h-64v-64h-64v64v64v64v64h64h64h64v-64v-64v-64v-64h-64zM128 320v64h64v-64h-64zM0 320v64h64v-64h-64zM128 128v64h-64v-64h64z" />
    <glyph glyph-name="Aring" unicode="&#xc5;" 
d="M128 0v64h-64v-64h-64v64v64v64v64h64v64h64v-64h64v-64v-64v-64v-64h-64zM128 128v64h-64v-64h64zM128 320v64h64v-64h-64zM64 320h-64v64h64v-64zM128 384h-64v64h64v-64z" />
    <glyph glyph-name="AE" unicode="&#xc6;" horiz-adv-x="320" 
d="M0 0v64v64v64h64v64h64v64h64h64v-64h-64v-64h64v-64h-64v-64h64v-64h-64h-64v64h-64v-64h-64zM128 128v64h-64v-64h64z" />
    <glyph glyph-name="Ccedilla" unicode="&#xc7;" 
d="M64 -64v64h-64v64v64v64v64v64h64h64h64v-64h-64h-64v-64v-64v-64h64h64v-64h-64v-64h-64z" />
    <glyph glyph-name="Egrave" unicode="&#xc8;" 
d="M128 64h64v-64h-64h-64h-64v64v64v64v64h64v64h64v-64h64v-64h-64v-64h-64v-64h64zM64 320h-64v64h64v-64z" />
    <glyph glyph-name="Eacute" unicode="&#xc9;" 
d="M128 64h64v-64h-64h-64h-64v64v64v64v64h64v64h64v-64h64v-64h-64v-64h-64v-64h64zM128 320v64h64v-64h-64z" />
    <glyph glyph-name="Ecircumflex" unicode="&#xca;" 
d="M128 320v64h64v-64h-64zM0 320v64h64v-64h-64zM128 64h64v-64h-64h-64h-64v64v64v64v64h64h64h64v-64h-64v-64h-64v-64h64zM128 384h-64v64h64v-64z" />
    <glyph glyph-name="Edieresis" unicode="&#xcb;" 
d="M128 320v64h64v-64h-64zM0 320v64h64v-64h-64zM128 64h64v-64h-64h-64h-64v64v64v64v64h64h64h64v-64h-64v-64h-64v-64h64z" />
    <glyph glyph-name="Igrave" unicode="&#xcc;" horiz-adv-x="192" 
d="M0 0v64v64v64v64h64v-64v-64v-64v-64h-64zM64 256v64h64v-64h-64zM64 320h-64v64h64v-64z" />
    <glyph glyph-name="Iacute" unicode="&#xcd;" horiz-adv-x="192" 
d="M64 0v64v64v64v64h64v-64v-64v-64v-64h-64zM64 256h-64v64h64v-64zM64 320v64h64v-64h-64z" />
    <glyph glyph-name="Icircumflex" unicode="&#xce;" 
d="M64 0v64v64v64v64h64v-64v-64v-64v-64h-64zM128 320v64h64v-64h-64zM0 320v64h64v-64h-64zM128 384h-64v64h64v-64z" />
    <glyph glyph-name="Idieresis" unicode="&#xcf;" 
d="M64 0v64v64v64v64h64v-64v-64v-64v-64h-64zM128 320v64h64v-64h-64zM0 320v64h64v-64h-64z" />
    <glyph glyph-name="Eth" unicode="&#xd0;" horiz-adv-x="320" 
d="M128 0h-64v64v64h-64v64h64v64v64h64h64v-64h64v-64v-64v-64h-64v64v64v64h-64v-64v-64v-64h64v-64h-64z" />
    <glyph glyph-name="Ntilde" unicode="&#xd1;" 
d="M128 0v64v64v64h64v-64v-64v-64h-64zM0 0v64v64v64v64h64h64v-64h-64v-64v-64v-64h-64zM128 320v64h-64v-64h-64v64h64v64h64h64v-64v-64h-64z" />
    <glyph glyph-name="Ograve" unicode="&#xd2;" 
d="M128 0h-64h-64v64v64v64v64h64v64h64v-64h64v-64v-64v-64v-64h-64zM128 64v64v64h-64v-64v-64h64zM64 320h-64v64h64v-64z" />
    <glyph glyph-name="Oacute" unicode="&#xd3;" 
d="M128 0h-64h-64v64v64v64v64h64v64h64v-64h64v-64v-64v-64v-64h-64zM128 64v64v64h-64v-64v-64h64zM128 320v64h64v-64h-64z" />
    <glyph glyph-name="Ocircumflex" unicode="&#xd4;" 
d="M128 320v64h64v-64h-64zM0 320v64h64v-64h-64zM128 0h-64h-64v64v64v64v64h64h64h64v-64v-64v-64v-64h-64zM128 64v64v64h-64v-64v-64h64zM128 384h-64v64h64v-64z" />
    <glyph glyph-name="Otilde" unicode="&#xd5;" 
d="M128 320v64h-64v-64h-64v64h64v64h64h64v-64v-64h-64zM128 0h-64h-64v64v64v64v64h64h64h64v-64v-64v-64v-64h-64zM128 64v64v64h-64v-64v-64h64z" />
    <glyph glyph-name="Odieresis" unicode="&#xd6;" 
d="M128 320v64h64v-64h-64zM0 320v64h64v-64h-64zM128 0h-64h-64v64v64v64v64h64h64h64v-64v-64v-64v-64h-64zM128 64v64v64h-64v-64v-64h64z" />
    <glyph glyph-name="Oslash" unicode="&#xd8;" horiz-adv-x="320" 
d="M64 -64v64v64h-64v64v64h64v-64h64v-64h64v-64h-64v-64h-64zM192 64v64h-64v64h-64v64h64v64h64v-64v-64h64v-64v-64h-64z" />
    <glyph glyph-name="Ugrave" unicode="&#xd9;" 
d="M128 0h-64h-64v64v64v64v64h64v-64v-64v-64h64v64v64v64h64v-64v-64v-64v-64h-64zM128 256h-64v64h64v-64zM64 320h-64v64h64v-64z" />
    <glyph glyph-name="Uacute" unicode="&#xda;" 
d="M128 0h-64h-64v64v64v64v64h64v-64v-64v-64h64v64v64v64h64v-64v-64v-64v-64h-64zM128 256h-64v64h64v-64zM128 320v64h64v-64h-64z" />
    <glyph glyph-name="Ucircumflex" unicode="&#xdb;" 
d="M128 320v64h64v-64h-64zM0 320v64h64v-64h-64zM128 0h-64h-64v64v64v64v64h64v-64v-64v-64h64v64v64v64h64v-64v-64v-64v-64h-64zM128 384h-64v64h64v-64z" />
    <glyph glyph-name="Udieresis" unicode="&#xdc;" 
d="M128 320v64h64v-64h-64zM0 320v64h64v-64h-64zM128 0h-64h-64v64v64v64v64h64v-64v-64v-64h64v64v64v64h64v-64v-64v-64v-64h-64z" />
    <glyph glyph-name="Yacute" unicode="&#xdd;" 
d="M64 0v64h-64v64v64v64h64v-64v-64h64v64v64h64v-64v-64v-64h-64v-64h-64zM128 256h-64v64h64v-64zM128 320v64h64v-64h-64z" />
    <glyph glyph-name="Thorn" unicode="&#xde;" 
d="M0 0v64v64v64v64v64h64v-64h64v-64h-64v-64h64v64h64v-64v-64h-64h-64v-64h-64z" />
    <glyph glyph-name="germandbls" unicode="&#xdf;" horiz-adv-x="320" 
d="M0 0v64v64v64v64v64h64h64h64v-64h64v-64h-64v-64h64v-64v-64h-64h-64v64h64v64h-64v64v64h-64v-64v-64v-64v-64h-64z" />
    <glyph glyph-name="agrave" unicode="&#xe0;" 
d="M128 0v64h-64v-64h-64v64v64v64v64h64v64h64v-64h64v-64v-64v-64v-64h-64zM128 128v64h-64v-64h64zM64 320h-64v64h64v-64z" />
    <glyph glyph-name="aacute" unicode="&#xe1;" 
d="M128 0v64h-64v-64h-64v64v64v64v64h64v64h64v-64h64v-64v-64v-64v-64h-64zM128 128v64h-64v-64h64zM128 320v64h64v-64h-64z" />
    <glyph glyph-name="acircumflex" unicode="&#xe2;" 
d="M128 0v64h-64v-64h-64v64v64v64v64h64h64h64v-64v-64v-64v-64h-64zM128 320v64h64v-64h-64zM0 320v64h64v-64h-64zM128 128v64h-64v-64h64zM128 384h-64v64h64v-64z" />
    <glyph glyph-name="atilde" unicode="&#xe3;" 
d="M128 0v64h-64v-64h-64v64v64v64v64h64h64h64v-64v-64v-64v-64h-64zM128 320v64h-64v-64h-64v64h64v64h64h64v-64v-64h-64zM128 128v64h-64v-64h64z" />
    <glyph glyph-name="adieresis" unicode="&#xe4;" 
d="M128 0v64h-64v-64h-64v64v64v64v64h64h64h64v-64v-64v-64v-64h-64zM128 320v64h64v-64h-64zM0 320v64h64v-64h-64zM128 128v64h-64v-64h64z" />
    <glyph glyph-name="aring" unicode="&#xe5;" 
d="M128 0v64h-64v-64h-64v64v64v64v64h64v64h64v-64h64v-64v-64v-64v-64h-64zM128 128v64h-64v-64h64zM128 320v64h64v-64h-64zM64 320h-64v64h64v-64zM128 384h-64v64h64v-64z" />
    <glyph glyph-name="ae" unicode="&#xe6;" horiz-adv-x="320" 
d="M0 0v64v64v64h64v64h64v64h64h64v-64h-64v-64h64v-64h-64v-64h64v-64h-64h-64v64h-64v-64h-64zM128 128v64h-64v-64h64z" />
    <glyph glyph-name="ccedilla" unicode="&#xe7;" 
d="M64 -64v64h-64v64v64v64v64v64h64h64h64v-64h-64h-64v-64v-64v-64h64h64v-64h-64v-64h-64z" />
    <glyph glyph-name="egrave" unicode="&#xe8;" 
d="M128 64h64v-64h-64h-64h-64v64v64v64v64h64v64h64v-64h64v-64h-64v-64h-64v-64h64zM64 320h-64v64h64v-64z" />
    <glyph glyph-name="eacute" unicode="&#xe9;" 
d="M128 64h64v-64h-64h-64h-64v64v64v64v64h64v64h64v-64h64v-64h-64v-64h-64v-64h64zM128 320v64h64v-64h-64z" />
    <glyph glyph-name="ecircumflex" unicode="&#xea;" 
d="M128 320v64h64v-64h-64zM0 320v64h64v-64h-64zM128 64h64v-64h-64h-64h-64v64v64v64v64h64h64h64v-64h-64v-64h-64v-64h64zM128 384h-64v64h64v-64z" />
    <glyph glyph-name="edieresis" unicode="&#xeb;" 
d="M128 320v64h64v-64h-64zM0 320v64h64v-64h-64zM128 64h64v-64h-64h-64h-64v64v64v64v64h64h64h64v-64h-64v-64h-64v-64h64z" />
    <glyph glyph-name="igrave" unicode="&#xec;" horiz-adv-x="192" 
d="M0 0v64v64v64v64h64v-64v-64v-64v-64h-64zM64 256v64h64v-64h-64zM64 320h-64v64h64v-64z" />
    <glyph glyph-name="iacute" unicode="&#xed;" horiz-adv-x="192" 
d="M64 0v64v64v64v64h64v-64v-64v-64v-64h-64zM64 256h-64v64h64v-64zM64 320v64h64v-64h-64z" />
    <glyph glyph-name="icircumflex" unicode="&#xee;" 
d="M64 0v64v64v64v64h64v-64v-64v-64v-64h-64zM128 320v64h64v-64h-64zM0 320v64h64v-64h-64zM128 384h-64v64h64v-64z" />
    <glyph glyph-name="idieresis" unicode="&#xef;" 
d="M64 0v64v64v64v64h64v-64v-64v-64v-64h-64zM128 320v64h64v-64h-64zM0 320v64h64v-64h-64z" />
    <glyph glyph-name="eth" unicode="&#xf0;" horiz-adv-x="320" 
d="M128 0h-64v64v64h-64v64h64v64v64h64h64v-64h64v-64v-64v-64h-64v64v64v64h-64v-64v-64v-64h64v-64h-64z" />
    <glyph glyph-name="ntilde" unicode="&#xf1;" 
d="M128 0v64v64v64h64v-64v-64v-64h-64zM0 0v64v64v64v64h64h64v-64h-64v-64v-64v-64h-64zM128 320v64h-64v-64h-64v64h64v64h64h64v-64v-64h-64z" />
    <glyph glyph-name="ograve" unicode="&#xf2;" 
d="M128 0h-64h-64v64v64v64v64h64v64h64v-64h64v-64v-64v-64v-64h-64zM128 64v64v64h-64v-64v-64h64zM64 320h-64v64h64v-64z" />
    <glyph glyph-name="oacute" unicode="&#xf3;" 
d="M128 0h-64h-64v64v64v64v64h64v64h64v-64h64v-64v-64v-64v-64h-64zM128 64v64v64h-64v-64v-64h64zM128 320v64h64v-64h-64z" />
    <glyph glyph-name="ocircumflex" unicode="&#xf4;" 
d="M128 320v64h64v-64h-64zM0 320v64h64v-64h-64zM128 0h-64h-64v64v64v64v64h64h64h64v-64v-64v-64v-64h-64zM128 64v64v64h-64v-64v-64h64zM128 384h-64v64h64v-64z" />
    <glyph glyph-name="otilde" unicode="&#xf5;" 
d="M128 320v64h-64v-64h-64v64h64v64h64h64v-64v-64h-64zM128 0h-64h-64v64v64v64v64h64h64h64v-64v-64v-64v-64h-64zM128 64v64v64h-64v-64v-64h64z" />
    <glyph glyph-name="odieresis" unicode="&#xf6;" 
d="M128 320v64h64v-64h-64zM0 320v64h64v-64h-64zM128 0h-64h-64v64v64v64v64h64h64h64v-64v-64v-64v-64h-64zM128 64v64v64h-64v-64v-64h64z" />
    <glyph glyph-name="oslash" unicode="&#xf8;" horiz-adv-x="320" 
d="M64 -64v64v64h-64v64v64h64v-64h64v-64h64v-64h-64v-64h-64zM192 64v64h-64v64h-64v64h64v64h64v-64v-64h64v-64v-64h-64z" />
    <glyph glyph-name="ugrave" unicode="&#xf9;" 
d="M128 0h-64h-64v64v64v64v64h64v-64v-64v-64h64v64v64v64h64v-64v-64v-64v-64h-64zM128 256h-64v64h64v-64zM64 320h-64v64h64v-64z" />
    <glyph glyph-name="uacute" unicode="&#xfa;" 
d="M128 0h-64h-64v64v64v64v64h64v-64v-64v-64h64v64v64v64h64v-64v-64v-64v-64h-64zM128 256h-64v64h64v-64zM128 320v64h64v-64h-64z" />
    <glyph glyph-name="ucircumflex" unicode="&#xfb;" 
d="M128 320v64h64v-64h-64zM0 320v64h64v-64h-64zM128 0h-64h-64v64v64v64v64h64v-64v-64v-64h64v64v64v64h64v-64v-64v-64v-64h-64zM128 384h-64v64h64v-64z" />
    <glyph glyph-name="udieresis" unicode="&#xfc;" 
d="M128 320v64h64v-64h-64zM0 320v64h64v-64h-64zM128 0h-64h-64v64v64v64v64h64v-64v-64v-64h64v64v64v64h64v-64v-64v-64v-64h-64z" />
    <glyph glyph-name="yacute" unicode="&#xfd;" 
d="M64 0v64h-64v64v64v64h64v-64v-64h64v64v64h64v-64v-64v-64h-64v-64h-64zM128 256h-64v64h64v-64zM128 320v64h64v-64h-64z" />
    <glyph glyph-name="thorn" unicode="&#xfe;" 
d="M0 0v64v64v64v64v64h64v-64h64v-64h-64v-64h64v64h64v-64v-64h-64h-64v-64h-64z" />
    <glyph glyph-name="ydieresis" unicode="&#xff;" 
d="M64 0v64h-64v64v64v64h64v-64v-64h64v64v64h64v-64v-64v-64h-64v-64h-64zM128 320v64h64v-64h-64zM0 320v64h64v-64h-64z" />
    <glyph glyph-name="Aogonek" unicode="&#x104;" 
d="M128 -64v64v64v64h-64v-64v-64h-64v64v64v64v64v64h64h64h64v-64v-64v-64v-64v-64v-64h-64zM128 192v64h-64v-64h64z" />
    <glyph glyph-name="aogonek" unicode="&#x105;" 
d="M128 -64v64v64v64h-64v-64v-64h-64v64v64v64v64v64h64h64h64v-64v-64v-64v-64v-64v-64h-64zM128 192v64h-64v-64h64z" />
    <glyph glyph-name="Cacute" unicode="&#x106;" 
d="M128 64h64v-64h-64h-64h-64v64v64v64v64h64v64h64v-64h64v-64h-64h-64v-64v-64h64zM128 320v64h64v-64h-64z" />
    <glyph glyph-name="cacute" unicode="&#x107;" 
d="M128 64h64v-64h-64h-64h-64v64v64v64v64h64v64h64v-64h64v-64h-64h-64v-64v-64h64zM128 320v64h64v-64h-64z" />
    <glyph glyph-name="Eogonek" unicode="&#x118;" 
d="M64 -64v64h-64v64v64v64v64v64h64h64h64v-64h-64h-64v-64h64v-64h-64v-64h64h64v-64h-64v-64h-64z" />
    <glyph glyph-name="eogonek" unicode="&#x119;" 
d="M64 -64v64h-64v64v64v64v64v64h64h64h64v-64h-64h-64v-64h64v-64h-64v-64h64h64v-64h-64v-64h-64z" />
    <glyph glyph-name="Gbreve" unicode="&#x11e;" 
d="M128 0h-64v64h64v64h64v-64v-64h-64zM64 64h-64v64v64v64h64v64h64v-64h64v-64h-64h-64v-64v-64zM128 320v64h64v-64h-64zM64 320h-64v64h64v-64z" />
    <glyph glyph-name="gbreve" unicode="&#x11f;" 
d="M128 0h-64v64h64v64h64v-64v-64h-64zM64 64h-64v64v64v64h64v64h64v-64h64v-64h-64h-64v-64v-64zM128 320v64h64v-64h-64zM64 320h-64v64h64v-64z" />
    <glyph glyph-name="Idotaccent" unicode="&#x130;" horiz-adv-x="128" 
d="M0 0v64v64v64v64h64v-64v-64v-64v-64h-64zM0 320v64h64v-64h-64z" />
    <glyph glyph-name="dotlessi" unicode="&#x131;" 
d="M128 0h-64h-64v64h64v64v64h-64v64h64h64v-64v-64v-64h64v-64h-64z" />
    <glyph glyph-name="Lslash" unicode="&#x141;" horiz-adv-x="320" 
d="M192 64h64v-64h-64h-64h-64v64v64h-64v64h64v64v64h64v-64h64v-64h-64v-64v-64h64z" />
    <glyph glyph-name="lslash" unicode="&#x142;" horiz-adv-x="320" 
d="M192 64h64v-64h-64h-64h-64v64v64h-64v64h64v64v64h64v-64h64v-64h-64v-64v-64h64z" />
    <glyph glyph-name="Nacute" unicode="&#x143;" 
d="M128 0v64v64v64h64v-64v-64v-64h-64zM0 0v64v64v64v64h64v64h64v-64v-64h-64v-64v-64v-64h-64zM128 320v64h64v-64h-64z" />
    <glyph glyph-name="nacute" unicode="&#x144;" 
d="M128 0v64v64v64h64v-64v-64v-64h-64zM0 0v64v64v64v64h64v64h64v-64v-64h-64v-64v-64v-64h-64zM128 320v64h64v-64h-64z" />
    <glyph glyph-name="OE" unicode="&#x152;" horiz-adv-x="320" 
d="M192 0h-64h-64v64h-64v64v64v64h64v64h64h64h64v-64h-64v-64h64v-64h-64v-64h64v-64h-64zM128 64v64v64v64h-64v-64v-64v-64h64z" />
    <glyph glyph-name="oe" unicode="&#x153;" horiz-adv-x="320" 
d="M192 0h-64h-64v64h-64v64v64v64h64v64h64h64h64v-64h-64v-64h64v-64h-64v-64h64v-64h-64zM128 64v64v64v64h-64v-64v-64v-64h64z" />
    <glyph glyph-name="Sacute" unicode="&#x15a;" 
d="M128 0h-64h-64v64h64h64v64h64v-64v-64h-64zM128 128h-64h-64v64v64h64v64h64v-64h64v-64h-64v-64zM128 320v64h64v-64h-64z" />
    <glyph glyph-name="sacute" unicode="&#x15b;" 
d="M128 0h-64h-64v64h64h64v64h64v-64v-64h-64zM128 128h-64h-64v64v64h64v64h64v-64h64v-64h-64v-64zM128 320v64h64v-64h-64z" />
    <glyph glyph-name="Scedilla" unicode="&#x15e;" 
d="M64 -64v64h-64v64h64h64v64h64v-64v-64h-64v-64h-64zM128 128h-64v64h64v-64zM64 192h-64v64h64v-64zM128 320h64v-64h-64h-64v64h64z" />
    <glyph glyph-name="scedilla" unicode="&#x15f;" 
d="M64 -64v64h-64v64h64h64v64h64v-64v-64h-64v-64h-64zM128 128h-64v64h64v-64zM64 192h-64v64h64v-64zM128 320h64v-64h-64h-64v64h64z" />
    <glyph glyph-name="Ydieresis" unicode="&#x178;" 
d="M64 0v64h-64v64v64v64h64v-64v-64h64v64v64h64v-64v-64v-64h-64v-64h-64zM128 320v64h64v-64h-64zM0 320v64h64v-64h-64z" />
    <glyph glyph-name="Zacute" unicode="&#x179;" 
d="M128 64h64v-64h-64h-64h-64v64v64h64v-64h64zM64 128v64h-64v64h64v64h64v-64h64v-64h-64v-64h-64zM128 320v64h64v-64h-64z" />
    <glyph glyph-name="zacute" unicode="&#x17a;" 
d="M128 64h64v-64h-64h-64h-64v64v64h64v-64h64zM64 128v64h-64v64h64v64h64v-64h64v-64h-64v-64h-64zM128 320v64h64v-64h-64z" />
    <glyph glyph-name="Zdotaccent" unicode="&#x17b;" 
d="M64 320v64h64v-64h-64zM128 64h64v-64h-64h-64h-64v64v64h64v-64h64zM64 128v64h-64v64h64h64h64v-64h-64v-64h-64z" />
    <glyph glyph-name="zdotaccent" unicode="&#x17c;" 
d="M64 320v64h64v-64h-64zM128 64h64v-64h-64h-64h-64v64v64h64v-64h64zM64 128v64h-64v64h64h64h64v-64h-64v-64h-64z" />
    <glyph glyph-name="afii10023" unicode="&#x401;" 
d="M128 384v64h64v-64h-64zM0 384v64h64v-64h-64zM128 64h64v-64h-64h-64h-64v64v64v64v64v64h64h64h64v-64h-64h-64v-64h64v-64h-64v-64h64z" />
    <glyph glyph-name="afii10017" unicode="&#x410;" 
d="M128 0v64v64h-64v-64v-64h-64v64v64v64v64v64h64h64h64v-64v-64v-64v-64v-64h-64zM128 192v64h-64v-64h64z" />
    <glyph glyph-name="afii10018" unicode="&#x411;" 
d="M64 0h-64v64v64v64v64v64h64h64h64v-64h-64h-64v-64h64v-64h64v-64h-64v64h-64v-64h64v-64h-64z" />
    <glyph glyph-name="afii10019" unicode="&#x412;" 
d="M64 0h-64v64v64v64v64v64h64h64v-64h64v-64h-64v64h-64v-64h64v-64h64v-64h-64v64h-64v-64h64v-64h-64z" />
    <glyph glyph-name="afii10020" unicode="&#x413;" 
d="M0 0v64v64v64v64v64h64h64h64v-64h-64h-64v-64v-64v-64v-64h-64z" />
    <glyph glyph-name="afii10021" unicode="&#x414;" horiz-adv-x="320" 
d="M192 -64v64h-64h-64v-64h-64v64v64h64v64v64h64v64v64h64h64v-64v-64v-64v-64v-64v-64h-64zM192 64v64v64h-64v-64v-64h64z" />
    <glyph glyph-name="afii10022" unicode="&#x415;" 
d="M128 64h64v-64h-64h-64h-64v64v64v64v64v64h64h64h64v-64h-64h-64v-64h64v-64h-64v-64h64z" />
    <glyph glyph-name="afii10024" unicode="&#x416;" horiz-adv-x="384" 
d="M256 0v64v64h64v-64v-64h-64zM128 0v64v64h-64v-64v-64h-64v64v64h64v64h64v64v64h64v-64v-64h64v-64h-64v-64v-64h-64zM256 192v64v64h64v-64v-64h-64zM64 192h-64v64v64h64v-64v-64z" />
    <glyph glyph-name="afii10025" unicode="&#x417;" 
d="M64 64h64v-64h-64h-64v64h64zM128 64v64h64v-64h-64zM128 128h-64h-64v64h64h64v-64zM128 192v64h64v-64h-64zM128 256h-64h-64v64h64h64v-64z" />
    <glyph glyph-name="afii10026" unicode="&#x418;" horiz-adv-x="320" 
d="M192 0v64v64h-64v-64h-64v-64h-64v64v64v64v64v64h64v-64v-64v-64h64v64h64v64v64h64v-64v-64v-64v-64v-64h-64z" />
    <glyph glyph-name="afii10027" unicode="&#x419;" horiz-adv-x="320" 
d="M192 0v64v64h-64v-64h-64v-64h-64v64v64v64v64v64h64v-64v-64v-64h64v64h64v64v64h64v-64v-64v-64v-64v-64h-64zM192 320h-64h-64v64h64h64v-64zM192 384v64h64v-64h-64zM64 384h-64v64h64v-64z" />
    <glyph glyph-name="afii10028" unicode="&#x41a;" horiz-adv-x="320" 
d="M192 0v64h64v-64h-64zM0 0v64v64v64v64v64h64v-64v-64h64v-64h64v-64h-64v64h-64v-64v-64h-64zM128 192v64h64v-64h-64zM192 256v64h64v-64h-64z" />
    <glyph glyph-name="afii10029" unicode="&#x41b;" horiz-adv-x="320" 
d="M192 0v64v64v64v64h-64v-64v-64v-64h-64v-64h-64v64h64v64v64v64v64h64h64h64v-64v-64v-64v-64v-64h-64z" />
    <glyph glyph-name="afii10030" unicode="&#x41c;" 
d="M128 0v64v64v64h-64v-64v-64v-64h-64v64v64v64v64v64h64v-64h64v64h64v-64v-64v-64v-64v-64h-64z" />
    <glyph glyph-name="afii10031" unicode="&#x41d;" 
d="M128 0v64v64h-64v-64v-64h-64v64v64v64v64v64h64v-64v-64h64v64v64h64v-64v-64v-64v-64v-64h-64z" />
    <glyph glyph-name="afii10032" unicode="&#x41e;" 
d="M128 0h-64h-64v64v64v64v64v64h64h64h64v-64v-64v-64v-64v-64h-64zM128 64v64v64v64h-64v-64v-64v-64h64z" />
    <glyph glyph-name="afii10033" unicode="&#x41f;" 
d="M128 0v64v64v64v64h-64v-64v-64v-64v-64h-64v64v64v64v64v64h64h64h64v-64v-64v-64v-64v-64h-64z" />
    <glyph glyph-name="afii10034" unicode="&#x420;" 
d="M0 0v64v64v64v64v64h64h64v-64h64v-64h-64v64h-64v-64h64v-64h-64v-64v-64h-64z" />
    <glyph glyph-name="afii10035" unicode="&#x421;" 
d="M128 64h64v-64h-64h-64h-64v64v64v64v64v64h64h64h64v-64h-64h-64v-64v-64v-64h64z" />
    <glyph glyph-name="afii10036" unicode="&#x422;" 
d="M64 0v64v64v64v64h-64v64h64h64h64v-64h-64v-64v-64v-64v-64h-64z" />
    <glyph glyph-name="afii10037" unicode="&#x423;" 
d="M0 0v64h64v-64h-64zM64 64v64v64h64v64v64h64v-64v-64v-64h-64v-64h-64zM64 192h-64v64v64h64v-64v-64z" />
    <glyph glyph-name="afii10038" unicode="&#x424;" horiz-adv-x="384" 
d="M128 -64v64h-64v64h-64v64v64v64h64v64h64v64h64v-64h64v-64h64v-64v-64v-64h-64v64v64v64h-64v-64v-64v-64h64v-64h-64v-64h-64zM128 64v64v64v64h-64v-64v-64v-64h64z" />
    <glyph glyph-name="afii10039" unicode="&#x425;" 
d="M128 0v64h-64v-64h-64v64v64h64v64h-64v64v64h64v-64h64v64h64v-64v-64h-64v-64h64v-64v-64h-64z" />
    <glyph glyph-name="afii10040" unicode="&#x426;" 
d="M128 -64v64h-64h-64v64v64v64v64v64h64v-64v-64v-64v-64h64v64v64v64v64h64v-64v-64v-64v-64v-64v-64h-64z" />
    <glyph glyph-name="afii10041" unicode="&#x427;" 
d="M128 0v64v64h-64v64h64v64v64h64v-64v-64v-64v-64v-64h-64zM64 192h-64v64v64h64v-64v-64z" />
    <glyph glyph-name="afii10042" unicode="&#x428;" horiz-adv-x="384" 
d="M256 0h-64h-64h-64h-64v64v64v64v64v64h64v-64v-64v-64v-64h64v64v64v64v64h64v-64v-64v-64v-64h64v64v64v64v64h64v-64v-64v-64v-64v-64h-64z" />
    <glyph glyph-name="afii10043" unicode="&#x429;" horiz-adv-x="384" 
d="M256 -64v64h-64h-64h-64h-64v64v64v64v64v64h64v-64v-64v-64v-64h64v64v64v64v64h64v-64v-64v-64v-64h64v64v64v64v64h64v-64v-64v-64v-64v-64v-64h-64z" />
    <glyph glyph-name="afii10044" unicode="&#x42a;" horiz-adv-x="320" 
d="M128 0h-64v64v64v64v64h-64v64h64h64v-64v-64h64v-64h64v-64h-64v64h-64v-64h64v-64h-64z" />
    <glyph glyph-name="afii10045" unicode="&#x42b;" horiz-adv-x="320" 
d="M192 0v64h-64v-64h-64h-64v64v64v64v64v64h64v-64v-64h64v-64h-64v-64h64v64h64v64v64v64h64v-64v-64v-64v-64v-64h-64z" />
    <glyph glyph-name="afii10046" unicode="&#x42c;" 
d="M64 0h-64v64v64v64v64v64h64v-64v-64h64v-64h64v-64h-64v64h-64v-64h64v-64h-64z" />
    <glyph glyph-name="afii10047" unicode="&#x42d;" horiz-adv-x="320" 
d="M0 192v64v64h64h64h64v-64h64v-64v-64v-64h-64v-64h-64h-64h-64v64v64h64v-64h64h64v64h-64v64h64v64h-64h-64v-64h-64z" />
    <glyph glyph-name="afii10048" unicode="&#x42e;" horiz-adv-x="384" 
d="M192 0v64h64v-64h-64zM0 0v64v64v64v64v64h64v-64v-64h64v64h64v-64v-64v-64h-64v64h-64v-64v-64h-64zM256 64v64v64v64h64v-64v-64v-64h-64zM256 256h-64v64h64v-64z" />
    <glyph glyph-name="afii10049" unicode="&#x42f;" 
d="M128 0v64v64h-64v-64v-64h-64v64v64h64v64h-64v64v64h64h64h64v-64v-64v-64v-64v-64h-64zM128 192v64h-64v-64h64z" />
    <glyph glyph-name="afii10065" unicode="&#x430;" 
d="M128 0v64v64h-64v-64v-64h-64v64v64v64v64v64h64h64h64v-64v-64v-64v-64v-64h-64zM128 192v64h-64v-64h64z" />
    <glyph glyph-name="afii10066" unicode="&#x431;" 
d="M64 0h-64v64v64v64v64v64h64h64h64v-64h-64h-64v-64h64v-64h64v-64h-64v64h-64v-64h64v-64h-64z" />
    <glyph glyph-name="afii10067" unicode="&#x432;" 
d="M64 0h-64v64v64v64v64v64h64h64v-64h64v-64h-64v64h-64v-64h64v-64h64v-64h-64v64h-64v-64h64v-64h-64z" />
    <glyph glyph-name="afii10068" unicode="&#x433;" 
d="M0 0v64v64v64v64v64h64h64h64v-64h-64h-64v-64v-64v-64v-64h-64z" />
    <glyph glyph-name="afii10069" unicode="&#x434;" horiz-adv-x="320" 
d="M192 -64v64h-64h-64v-64h-64v64v64h64v64v64h64v64v64h64h64v-64v-64v-64v-64v-64v-64h-64zM192 64v64v64h-64v-64v-64h64z" />
    <glyph glyph-name="afii10070" unicode="&#x435;" 
d="M128 64h64v-64h-64h-64h-64v64v64v64v64v64h64h64h64v-64h-64h-64v-64h64v-64h-64v-64h64z" />
    <glyph glyph-name="afii10072" unicode="&#x436;" horiz-adv-x="384" 
d="M256 0v64v64h64v-64v-64h-64zM128 0v64v64h-64v-64v-64h-64v64v64h64v64h64v64v64h64v-64v-64h64v-64h-64v-64v-64h-64zM256 192v64v64h64v-64v-64h-64zM64 192h-64v64v64h64v-64v-64z" />
    <glyph glyph-name="afii10073" unicode="&#x437;" 
d="M64 64h64v-64h-64h-64v64h64zM128 64v64h64v-64h-64zM128 128h-64h-64v64h64h64v-64zM128 192v64h64v-64h-64zM128 256h-64h-64v64h64h64v-64z" />
    <glyph glyph-name="afii10074" unicode="&#x438;" horiz-adv-x="320" 
d="M192 0v64v64h-64v-64h-64v-64h-64v64v64v64v64v64h64v-64v-64v-64h64v64h64v64v64h64v-64v-64v-64v-64v-64h-64z" />
    <glyph glyph-name="afii10075" unicode="&#x439;" horiz-adv-x="320" 
d="M192 0v64v64h-64v-64h-64v-64h-64v64v64v64v64v64h64v-64v-64v-64h64v64h64v64v64h64v-64v-64v-64v-64v-64h-64zM192 320h-64h-64v64h64h64v-64zM192 384v64h64v-64h-64zM64 384h-64v64h64v-64z" />
    <glyph glyph-name="afii10076" unicode="&#x43a;" horiz-adv-x="320" 
d="M192 0v64h64v-64h-64zM0 0v64v64v64v64v64h64v-64v-64h64v-64h64v-64h-64v64h-64v-64v-64h-64zM128 192v64h64v-64h-64zM192 256v64h64v-64h-64z" />
    <glyph glyph-name="afii10077" unicode="&#x43b;" horiz-adv-x="320" 
d="M192 0v64v64v64v64h-64v-64v-64v-64h-64v-64h-64v64h64v64v64v64v64h64h64h64v-64v-64v-64v-64v-64h-64z" />
    <glyph glyph-name="afii10078" unicode="&#x43c;" 
d="M128 0v64v64v64h-64v-64v-64v-64h-64v64v64v64v64v64h64v-64h64v64h64v-64v-64v-64v-64v-64h-64z" />
    <glyph glyph-name="afii10079" unicode="&#x43d;" 
d="M128 0v64v64h-64v-64v-64h-64v64v64v64v64v64h64v-64v-64h64v64v64h64v-64v-64v-64v-64v-64h-64z" />
    <glyph glyph-name="afii10080" unicode="&#x43e;" 
d="M128 0h-64h-64v64v64v64v64v64h64h64h64v-64v-64v-64v-64v-64h-64zM128 64v64v64v64h-64v-64v-64v-64h64z" />
    <glyph glyph-name="afii10081" unicode="&#x43f;" 
d="M128 0v64v64v64v64h-64v-64v-64v-64v-64h-64v64v64v64v64v64h64h64h64v-64v-64v-64v-64v-64h-64z" />
    <glyph glyph-name="afii10082" unicode="&#x440;" 
d="M0 0v64v64v64v64v64h64h64v-64h64v-64h-64v64h-64v-64h64v-64h-64v-64v-64h-64z" />
    <glyph glyph-name="afii10083" unicode="&#x441;" 
d="M128 64h64v-64h-64h-64h-64v64v64v64v64v64h64h64h64v-64h-64h-64v-64v-64v-64h64z" />
    <glyph glyph-name="afii10084" unicode="&#x442;" 
d="M64 0v64v64v64v64h-64v64h64h64h64v-64h-64v-64v-64v-64v-64h-64z" />
    <glyph glyph-name="afii10085" unicode="&#x443;" 
d="M0 0v64h64v-64h-64zM64 64v64v64h64v64v64h64v-64v-64v-64h-64v-64h-64zM64 192h-64v64v64h64v-64v-64z" />
    <glyph glyph-name="afii10086" unicode="&#x444;" horiz-adv-x="384" 
d="M128 -64v64h-64v64h-64v64v64v64h64v64h64v64h64v-64h64v-64h64v-64v-64v-64h-64v64v64v64h-64v-64v-64v-64h64v-64h-64v-64h-64zM128 64v64v64v64h-64v-64v-64v-64h64z" />
    <glyph glyph-name="afii10087" unicode="&#x445;" 
d="M128 0v64h-64v-64h-64v64v64h64v64h-64v64v64h64v-64h64v64h64v-64v-64h-64v-64h64v-64v-64h-64z" />
    <glyph glyph-name="afii10088" unicode="&#x446;" 
d="M128 -64v64h-64h-64v64v64v64v64v64h64v-64v-64v-64v-64h64v64v64v64v64h64v-64v-64v-64v-64v-64v-64h-64z" />
    <glyph glyph-name="afii10089" unicode="&#x447;" 
d="M128 0v64v64h-64v64h64v64v64h64v-64v-64v-64v-64v-64h-64zM64 192h-64v64v64h64v-64v-64z" />
    <glyph glyph-name="afii10090" unicode="&#x448;" horiz-adv-x="384" 
d="M256 0h-64h-64h-64h-64v64v64v64v64v64h64v-64v-64v-64v-64h64v64v64v64v64h64v-64v-64v-64v-64h64v64v64v64v64h64v-64v-64v-64v-64v-64h-64z" />
    <glyph glyph-name="afii10091" unicode="&#x449;" horiz-adv-x="384" 
d="M256 -64v64h-64h-64h-64h-64v64v64v64v64v64h64v-64v-64v-64v-64h64v64v64v64v64h64v-64v-64v-64v-64h64v64v64v64v64h64v-64v-64v-64v-64v-64v-64h-64z" />
    <glyph glyph-name="afii10092" unicode="&#x44a;" horiz-adv-x="320" 
d="M128 0h-64v64v64v64v64h-64v64h64h64v-64v-64h64v-64h64v-64h-64v64h-64v-64h64v-64h-64z" />
    <glyph glyph-name="afii10093" unicode="&#x44b;" horiz-adv-x="320" 
d="M192 0v64h-64v-64h-64h-64v64v64v64v64v64h64v-64v-64h64v-64h-64v-64h64v64h64v64v64v64h64v-64v-64v-64v-64v-64h-64z" />
    <glyph glyph-name="afii10094" unicode="&#x44c;" 
d="M64 0h-64v64v64v64v64v64h64v-64v-64h64v-64h64v-64h-64v64h-64v-64h64v-64h-64z" />
    <glyph glyph-name="afii10095" unicode="&#x44d;" horiz-adv-x="320" 
d="M0 192v64v64h64h64h64v-64h64v-64v-64v-64h-64v-64h-64h-64h-64v64v64h64v-64h64h64v64h-64v64h64v64h-64h-64v-64h-64z" />
    <glyph glyph-name="afii10096" unicode="&#x44e;" horiz-adv-x="384" 
d="M192 0v64h64v-64h-64zM0 0v64v64v64v64v64h64v-64v-64h64v64h64v-64v-64v-64h-64v64h-64v-64v-64h-64zM256 64v64v64v64h64v-64v-64v-64h-64zM256 256h-64v64h64v-64z" />
    <glyph glyph-name="afii10097" unicode="&#x44f;" 
d="M128 0v64v64h-64v-64v-64h-64v64v64h64v64h-64v64v64h64h64h64v-64v-64v-64v-64v-64h-64zM128 192v64h-64v-64h64z" />
    <glyph glyph-name="afii10071" unicode="&#x451;" 
d="M128 384v64h64v-64h-64zM0 384v64h64v-64h-64zM128 64h64v-64h-64h-64h-64v64v64v64v64v64h64h64h64v-64h-64h-64v-64h64v-64h-64v-64h64z" />
    <glyph glyph-name="uni1E9E" unicode="&#x1e9e;" horiz-adv-x="320" 
d="M0 0v64v64v64v64v64h64h64h64v-64h64v-64h-64v-64h64v-64v-64h-64h-64v64h64v64h-64v64v64h-64v-64v-64v-64v-64h-64z" />
    <glyph glyph-name="Euro" unicode="&#x20ac;" horiz-adv-x="320" 
d="M192 64h64v-64h-64h-64v64h64zM128 64h-64h-64v64h64v64h-64v64h64h64v-64h64v-64h-64v-64zM192 320h64v-64h-64h-64v64h64z" />
    <glyph glyph-name="uni3000" unicode="&#x3000;" horiz-adv-x="1024" 
 />
    <glyph glyph-name=".null" horiz-adv-x="0" 
 />
    <glyph glyph-name="nonmarkingreturn" horiz-adv-x="341" 
 />
  </font>
</defs>
</svg>
